<svg viewBox="0 0 924 400" xmlns="http://www.w3.org/2000/svg"><g><g><g><g><g><line x1="61.77000045776367" y1="377.95999908447266" x2="56.77000045776367" y2="377.95999908447266" style="visibility: inherit;" fill="rgb(0, 0, 0)" stroke="rgb(204, 204, 204)" stroke-width="1px"></line><line x1="61.77000045776367" y1="343.59999916770244" x2="56.77000045776367" y2="343.59999916770244" style="visibility: inherit;" fill="rgb(0, 0, 0)" stroke="rgb(204, 204, 204)" stroke-width="1px"></line><line x1="61.77000045776367" y1="309.23999925093216" x2="56.77000045776367" y2="309.23999925093216" style="visibility: inherit;" fill="rgb(0, 0, 0)" stroke="rgb(204, 204, 204)" stroke-width="1px"></line><line x1="61.77000045776367" y1="274.87999933416194" x2="56.77000045776367" y2="274.87999933416194" style="visibility: inherit;" fill="rgb(0, 0, 0)" stroke="rgb(204, 204, 204)" stroke-width="1px"></line><line x1="61.77000045776367" y1="240.5199994173917" x2="56.77000045776367" y2="240.5199994173917" style="visibility: inherit;" fill="rgb(0, 0, 0)" stroke="rgb(204, 204, 204)" stroke-width="1px"></line><line x1="61.77000045776367" y1="206.15999950062144" x2="56.77000045776367" y2="206.15999950062144" style="visibility: inherit;" fill="rgb(0, 0, 0)" stroke="rgb(204, 204, 204)" stroke-width="1px"></line><line x1="61.77000045776367" y1="171.7999995838512" x2="56.77000045776367" y2="171.7999995838512" style="visibility: inherit;" fill="rgb(0, 0, 0)" stroke="rgb(204, 204, 204)" stroke-width="1px"></line><line x1="61.77000045776367" y1="137.43999966708103" x2="56.77000045776367" y2="137.43999966708103" style="visibility: inherit;" fill="rgb(0, 0, 0)" stroke="rgb(204, 204, 204)" stroke-width="1px"></line><line x1="61.77000045776367" y1="103.07999975031072" x2="56.77000045776367" y2="103.07999975031072" style="visibility: inherit;" fill="rgb(0, 0, 0)" stroke="rgb(204, 204, 204)" stroke-width="1px"></line><line x1="61.77000045776367" y1="68.7199998335405" x2="56.77000045776367" y2="68.7199998335405" style="visibility: inherit;" fill="rgb(0, 0, 0)" stroke="rgb(204, 204, 204)" stroke-width="1px"></line><line x1="61.77000045776367" y1="34.35999991677028" x2="56.77000045776367" y2="34.35999991677028" style="visibility: inherit;" fill="rgb(0, 0, 0)" stroke="rgb(204, 204, 204)" stroke-width="1px"></line><line x1="61.77000045776367" y1="0" x2="56.77000045776367" y2="0" style="visibility: inherit;" fill="rgb(0, 0, 0)" stroke="rgb(204, 204, 204)" stroke-width="1px"></line></g><g transform="translate(51.77000045776367, 0)"><text style="text-anchor: end; visibility: hidden; font-family: &quot;Helvetica Neue&quot;, sans-serif; font-size: 12px; font-weight: 200;" x="0" y="377.95999908447266" dx="0em" dy="0.3em" fill="rgb(50, 49, 63)" stroke="none" stroke-width="1px">-0.01</text><text style="text-anchor: end; visibility: inherit; font-family: &quot;Helvetica Neue&quot;, sans-serif; font-size: 12px; font-weight: 200;" x="0" y="343.59999916770244" dx="0em" dy="0.3em" fill="rgb(50, 49, 63)" stroke="none" stroke-width="1px">0</text><text style="text-anchor: end; visibility: inherit; font-family: &quot;Helvetica Neue&quot;, sans-serif; font-size: 12px; font-weight: 200;" x="0" y="309.23999925093216" dx="0em" dy="0.3em" fill="rgb(50, 49, 63)" stroke="none" stroke-width="1px">0.01</text><text style="text-anchor: end; visibility: inherit; font-family: &quot;Helvetica Neue&quot;, sans-serif; font-size: 12px; font-weight: 200;" x="0" y="274.87999933416194" dx="0em" dy="0.3em" fill="rgb(50, 49, 63)" stroke="none" stroke-width="1px">0.02</text><text style="text-anchor: end; visibility: inherit; font-family: &quot;Helvetica Neue&quot;, sans-serif; font-size: 12px; font-weight: 200;" x="0" y="240.5199994173917" dx="0em" dy="0.3em" fill="rgb(50, 49, 63)" stroke="none" stroke-width="1px">0.03</text><text style="text-anchor: end; visibility: inherit; font-family: &quot;Helvetica Neue&quot;, sans-serif; font-size: 12px; font-weight: 200;" x="0" y="206.15999950062144" dx="0em" dy="0.3em" fill="rgb(50, 49, 63)" stroke="none" stroke-width="1px">0.04</text><text style="text-anchor: end; visibility: inherit; font-family: &quot;Helvetica Neue&quot;, sans-serif; font-size: 12px; font-weight: 200;" x="0" y="171.7999995838512" dx="0em" dy="0.3em" fill="rgb(50, 49, 63)" stroke="none" stroke-width="1px">0.05</text><text style="text-anchor: end; visibility: inherit; font-family: &quot;Helvetica Neue&quot;, sans-serif; font-size: 12px; font-weight: 200;" x="0" y="137.43999966708103" dx="0em" dy="0.3em" fill="rgb(50, 49, 63)" stroke="none" stroke-width="1px">0.06</text><text style="text-anchor: end; visibility: inherit; font-family: &quot;Helvetica Neue&quot;, sans-serif; font-size: 12px; font-weight: 200;" x="0" y="103.07999975031072" dx="0em" dy="0.3em" fill="rgb(50, 49, 63)" stroke="none" stroke-width="1px">0.07</text><text style="text-anchor: end; visibility: inherit; font-family: &quot;Helvetica Neue&quot;, sans-serif; font-size: 12px; font-weight: 200;" x="0" y="68.7199998335405" dx="0em" dy="0.3em" fill="rgb(50, 49, 63)" stroke="none" stroke-width="1px">0.08</text><text style="text-anchor: end; visibility: inherit; font-family: &quot;Helvetica Neue&quot;, sans-serif; font-size: 12px; font-weight: 200;" x="0" y="34.35999991677028" dx="0em" dy="0.3em" fill="rgb(50, 49, 63)" stroke="none" stroke-width="1px">0.09</text><text style="text-anchor: end; visibility: hidden; font-family: &quot;Helvetica Neue&quot;, sans-serif; font-size: 12px; font-weight: 200;" x="0" y="0" dx="0em" dy="0.3em" fill="rgb(50, 49, 63)" stroke="none" stroke-width="1px">0.1</text></g><line x1="61.77000045776367" y1="0" x2="61.77000045776367" y2="377.95999908447266" fill="rgb(0, 0, 0)" stroke="rgb(204, 204, 204)" stroke-width="1px"></line></g></g><g transform="translate(61, 0)" clip-path="url(#clip_0)"><clipPath id="clip_0"><rect width="862" height="377"></rect></clipPath><g><g><g><line x1="0" y1="0" x2="0" y2="377.95999908447266" fill="rgb(0, 0, 0)" stroke="rgb(60, 60, 60)" stroke-width="1px" opacity="0.25"></line><line x1="71.85249996185303" y1="0" x2="71.85249996185303" y2="377.95999908447266" fill="rgb(0, 0, 0)" stroke="rgb(60, 60, 60)" stroke-width="1px" opacity="0.25"></line><line x1="143.70499992370605" y1="0" x2="143.70499992370605" y2="377.95999908447266" fill="rgb(0, 0, 0)" stroke="rgb(60, 60, 60)" stroke-width="1px" opacity="0.25"></line><line x1="215.55749988555908" y1="0" x2="215.55749988555908" y2="377.95999908447266" fill="rgb(0, 0, 0)" stroke="rgb(60, 60, 60)" stroke-width="1px" opacity="0.25"></line><line x1="287.4099998474121" y1="0" x2="287.4099998474121" y2="377.95999908447266" fill="rgb(0, 0, 0)" stroke="rgb(60, 60, 60)" stroke-width="1px" opacity="0.25"></line><line x1="359.26249980926514" y1="0" x2="359.26249980926514" y2="377.95999908447266" fill="rgb(0, 0, 0)" stroke="rgb(60, 60, 60)" stroke-width="1px" opacity="0.25"></line><line x1="431.11499977111816" y1="0" x2="431.11499977111816" y2="377.95999908447266" fill="rgb(0, 0, 0)" stroke="rgb(60, 60, 60)" stroke-width="1px" opacity="0.25"></line><line x1="502.96749973297125" y1="0" x2="502.96749973297125" y2="377.95999908447266" fill="rgb(0, 0, 0)" stroke="rgb(60, 60, 60)" stroke-width="1px" opacity="0.25"></line><line x1="574.8199996948242" y1="0" x2="574.8199996948242" y2="377.95999908447266" fill="rgb(0, 0, 0)" stroke="rgb(60, 60, 60)" stroke-width="1px" opacity="0.25"></line><line x1="646.6724996566772" y1="0" x2="646.6724996566772" y2="377.95999908447266" fill="rgb(0, 0, 0)" stroke="rgb(60, 60, 60)" stroke-width="1px" opacity="0.25"></line><line x1="718.5249996185303" y1="0" x2="718.5249996185303" y2="377.95999908447266" fill="rgb(0, 0, 0)" stroke="rgb(60, 60, 60)" stroke-width="1px" opacity="0.25"></line><line x1="790.3774995803833" y1="0" x2="790.3774995803833" y2="377.95999908447266" fill="rgb(0, 0, 0)" stroke="rgb(60, 60, 60)" stroke-width="1px" opacity="0.25"></line><line x1="862.2299995422363" y1="0" x2="862.2299995422363" y2="377.95999908447266" fill="rgb(0, 0, 0)" stroke="rgb(60, 60, 60)" stroke-width="1px" opacity="0.25"></line></g><g><line x1="0" y1="377.95999908447266" x2="862.2299995422363" y2="377.95999908447266" fill="rgb(0, 0, 0)" stroke="rgb(60, 60, 60)" stroke-width="1px" opacity="0.25"></line><line x1="0" y1="343.59999916770244" x2="862.2299995422363" y2="343.59999916770244" fill="rgb(0, 0, 0)" stroke="rgb(60, 60, 60)" stroke-width="1px" opacity="0.25"></line><line x1="0" y1="309.23999925093216" x2="862.2299995422363" y2="309.23999925093216" fill="rgb(0, 0, 0)" stroke="rgb(60, 60, 60)" stroke-width="1px" opacity="0.25"></line><line x1="0" y1="274.87999933416194" x2="862.2299995422363" y2="274.87999933416194" fill="rgb(0, 0, 0)" stroke="rgb(60, 60, 60)" stroke-width="1px" opacity="0.25"></line><line x1="0" y1="240.5199994173917" x2="862.2299995422363" y2="240.5199994173917" fill="rgb(0, 0, 0)" stroke="rgb(60, 60, 60)" stroke-width="1px" opacity="0.25"></line><line x1="0" y1="206.15999950062144" x2="862.2299995422363" y2="206.15999950062144" fill="rgb(0, 0, 0)" stroke="rgb(60, 60, 60)" stroke-width="1px" opacity="0.25"></line><line x1="0" y1="171.7999995838512" x2="862.2299995422363" y2="171.7999995838512" fill="rgb(0, 0, 0)" stroke="rgb(60, 60, 60)" stroke-width="1px" opacity="0.25"></line><line x1="0" y1="137.43999966708103" x2="862.2299995422363" y2="137.43999966708103" fill="rgb(0, 0, 0)" stroke="rgb(60, 60, 60)" stroke-width="1px" opacity="0.25"></line><line x1="0" y1="103.07999975031072" x2="862.2299995422363" y2="103.07999975031072" fill="rgb(0, 0, 0)" stroke="rgb(60, 60, 60)" stroke-width="1px" opacity="0.25"></line><line x1="0" y1="68.7199998335405" x2="862.2299995422363" y2="68.7199998335405" fill="rgb(0, 0, 0)" stroke="rgb(60, 60, 60)" stroke-width="1px" opacity="0.25"></line><line x1="0" y1="34.35999991677028" x2="862.2299995422363" y2="34.35999991677028" fill="rgb(0, 0, 0)" stroke="rgb(60, 60, 60)" stroke-width="1px" opacity="0.25"></line><line x1="0" y1="0" x2="862.2299995422363" y2="0" fill="rgb(0, 0, 0)" stroke="rgb(60, 60, 60)" stroke-width="1px" opacity="0.25"></line></g></g></g><g><g><line x1="0" y1="343.59999916770244" x2="862.2299995422363" y2="343.59999916770244" fill="rgb(0, 0, 0)" stroke="rgb(153, 153, 153)" stroke-width="1.5px"></line></g></g><g><g><line x1="71.85249996185303" y1="0" x2="71.85249996185303" y2="377.95999908447266" fill="rgb(0, 0, 0)" stroke="rgb(153, 153, 153)" stroke-width="1.5px"></line></g></g><g><g><g><g><g><path style="fill: none;" stroke="rgb(51, 187, 238)" stroke-width="2px" d="M71.85249996185303,38.91328948847024L79.03774995803832,74.93961172130781L86.22299995422364,104.11383542853451L93.40824995040894,127.40729581188992L100.59349994659424,146.05506791777083L107.77874994277954,163.71931771767643L114.96399993896485,176.71666843964354L122.14924993515014,187.39299100902474L129.33449993133544,196.16140259153443L136.51974992752073,202.20631796763877L143.70499992370605,207.10423345236083L150.89024991989135,211.20510823522545L158.07549991607664,214.99107949399732L165.26074991226199,217.94217802425777L172.44599990844728,220.57623553338442L179.63124990463257,224.02105499975644L186.8164999008179,226.13478004235682L194.00174989700318,227.79537420283106L201.18699989318847,229.6417392700021L208.3722498893738,231.5277043577122L215.55749988555908,232.45432570394266L222.7427498817444,233.79091227887744L229.9279998779297,235.30543233620145L237.113249874115,236.4307256307118L244.29849987030028,237.27532332622752L251.48374986648562,237.86332020373393L258.6689998626709,239.27016071049138L265.85424985885624,240.04593201091038L273.03949985504147,241.10236496248817L280.2247498512268,241.62186326851383L287.4099998474121,242.37754129709253L294.5952498435974,243.4448100516689L301.7804998397827,244.38938862028635L308.96574983596804,244.40998883966444L316.1509998321533,245.46370859565823L323.3362498283386,245.90543658557863L330.52149982452397,246.3412701977796L337.7067498207092,247.39445639263806L344.89199981689455,247.78269265164664L352.07724981307985,248.639823478668L359.26249980926514,249.43921646467146L366.4477498054504,249.6854322389546L373.6329998016358,250.5463216922378L380.818249797821,251.47555098556458L388.00349979400636,251.85521072743074L395.18874979019165,252.02756935053287L402.37399978637694,252.3691354572042L409.55924978256223,252.9635974462566L416.7444997787476,252.85232099760395L423.9297497749328,253.59170270482576L431.11499977111816,254.06983055176067L438.30024976730346,254.7410199453145L445.4854997634888,255.77283021013835L452.6707497596741,255.94322943362027L459.8559997558594,255.81102238309865L467.0412497520446,256.78731706817115L474.22649974823,257.4119396149087L481.4117497444153,257.94119751888826L488.59699974060055,257.75230360618207L495.78224973678584,258.71523273110535L502.96749973297125,259.0168511440851L510.1527497291565,258.9683010847553L517.3379997253418,259.53791608681246L524.523249721527,259.7861982964241L531.7084997177125,260.3231360154116L538.8937497138977,260.89995402524414L546.0789997100829,261.32924802448747L553.2642497062684,261.5320348869748L560.4494997024536,262.4415478815223L567.6347496986389,262.7094628436881L574.8199996948242,263.21171330050134L582.0052496910096,263.7754425318213L589.1904996871948,264.1408777176421L596.3757496833801,264.17469869756195L603.5609996795654,264.410634526993L610.7462496757507,264.74796839487345L617.9314996719361,265.1224916258036L625.1167496681213,265.4065288959317L632.3019996643065,265.89251206006145L639.487249660492,266.4448297032024L646.6724996566772,266.404554099959L653.8577496528625,266.8305297644924L661.0429996490479,266.92013629977913L668.2282496452332,267.24421267857315L675.4134996414184,267.6671044047827L682.5987496376038,267.83373221744716L689.7839996337891,268.0739288524019L696.9692496299743,268.5887069348443L704.1544996261597,268.3215463595814L711.3397496223449,268.76627989991914L718.5249996185303,268.81765342398717L725.7102496147156,269.55171489147995L732.8954996109009,269.3866943632259L740.0807496070861,269.3903413877177L747.2659996032716,269.6902342685446L754.4512495994568,269.498951811323L761.636499595642,270.0641363128087L768.8217495918275,270.133249438475L776.0069995880127,270.13434580656633L783.192249584198,270.05255819984546" fill="none"></path></g><g><path style="fill: none;" stroke="rgb(238, 51, 119)" stroke-width="2px" d="M71.85249996185303,19.65318768032256L79.03774995803832,40.85710908485049L86.22299995422364,57.24900692141648L93.40824995040894,76.43500578662002L100.59349994659424,94.40379893139487L107.77874994277954,107.90760177268436L114.96399993896485,119.65883232737787L122.14924993515014,130.92906311401316L129.33449993133544,135.83176835021698L136.51974992752073,141.79698868243474L143.70499992370605,149.44150873845953L150.89024991989135,156.08970566901428L158.07549991607664,162.66110912141605L165.26074991226199,169.43220462992153L172.44599990844728,173.34264195923888L179.63124990463257,177.49042814229466L186.8164999008179,180.95849220303757L194.00174989700318,184.47080146019425L201.18699989318847,186.8843707499782L208.3722498893738,189.18190979842566L215.55749988555908,192.0983397901245L222.7427498817444,194.1145303726191L229.9279998779297,196.24728589396216L237.113249874115,197.49644357068846L244.29849987030028,199.82558354382675L251.48374986648562,202.46169499108686L258.6689998626709,201.78112376601382L265.85424985885624,202.26172830933535L273.03949985504147,204.15921216798026L280.2247498512268,207.03793198708703L287.4099998474121,208.2614949305089L294.5952498435974,210.1160047301442L301.7804998397827,212.40297615006358L308.96574983596804,213.53236155698931L316.1509998321533,214.38320370189692L323.3362498283386,215.66921569064655L330.52149982452397,217.48255113150307L337.7067498207092,218.36073319090923L344.89199981689455,218.69851330439133L352.07724981307985,220.5094265761323L359.26249980926514,220.7952362817553L366.4477498054504,221.32895462247535L373.6329998016358,222.39571290953407L380.818249797821,222.94932114352346L388.00349979400636,225.26065762954124L395.18874979019165,225.84664958517246L402.37399978637694,226.78705948061523L409.55924978256223,227.14957076224698L416.7444997787476,227.68525211317422L423.9297497749328,228.65029078305002L431.11499977111816,229.79142770379028L438.30024976730346,231.7418602911435L445.4854997634888,232.6856912399739L452.6707497596741,232.62304422172838L459.8559997558594,233.29208794967312L467.0412497520446,234.14435409823918L474.22649974823,234.94444302518946L481.4117497444153,236.47839240362998L488.59699974060055,237.0255572698546L495.78224973678584,238.00591875309817L502.96749973297125,238.1181896201369L510.1527497291565,239.66373811233115L517.3379997253418,240.53868664892622L524.523249721527,241.04150648228256L531.7084997177125,241.90673547194808L538.8937497138977,242.3534191942291L546.0789997100829,243.12043098600412L553.2642497062684,243.55343017396234L560.4494997024536,244.6609135793182L567.6347496986389,245.3633175111327L574.8199996948242,245.59383105686877L582.0052496910096,245.81939744852147L589.1904996871948,246.33193055471324L596.3757496833801,246.86683390927442L603.5609996795654,248.3320585523055L610.7462496757507,248.87908713012735L617.9314996719361,249.4195913327523L625.1167496681213,250.6985481611684L632.3019996643065,251.5419881172324L639.487249660492,252.049467781647L646.6724996566772,253.26333338249157L653.8577496528625,254.00969832036145L661.0429996490479,254.7519067239797L668.2282496452332,254.80757632008823L675.4134996414184,255.69044374389722L682.5987496376038,255.999608279308L689.7839996337891,255.6979634524114L696.9692496299743,255.7569579030146L704.1544996261597,255.5640494755151L711.3397496223449,256.47469303189905L718.5249996185303,257.38112542640624L725.7102496147156,258.2456964243712L732.8954996109009,257.9700060959163L740.0807496070861,258.24951816562793L747.2659996032716,258.65116510820695L754.4512495994568,258.6759545080466L761.636499595642,259.1646160744302L768.8217495918275,259.24494227388556L776.0069995880127,259.7474236915874L783.192249584198,259.37430644709815" fill="none"></path></g><g><path style="fill: none;" stroke="rgb(51, 187, 238)" stroke-width="2px" d="M71.85249996185303,10.807014743137984L79.03774995803832,28.712687041350478L86.22299995422364,37.701490158115405L93.40824995040894,46.672647282215394L100.59349994659424,58.05814289679182L107.77874994277954,68.15994757220273L114.96399993896485,79.59992630118546L122.14924993515014,90.31563180113483L129.33449993133544,100.11638610022686L136.51974992752073,106.10562125620919L143.70499992370605,112.59684048090713L150.89024991989135,118.14981583196175L158.07549991607664,125.70915304000067L165.26074991226199,131.7574832231691L172.44599990844728,136.24164596522422L179.63124990463257,137.01021695145764L186.8164999008179,138.66562593660566L194.00174989700318,140.93304038013733L201.18699989318847,145.00115223273536L208.3722498893738,149.58268869358324L215.55749988555908,155.06152707138745L222.7427498817444,159.2820973654629L229.9279998779297,162.0840785708855L237.113249874115,165.19525607314165L244.29849987030028,165.30950729776663L251.48374986648562,169.76994770748485L258.6689998626709,170.83822647803547L265.85424985885624,172.26992722526728L273.03949985504147,174.26824324303377L280.2247498512268,177.40608404965687L287.4099998474121,181.43827289668744L294.5952498435974,181.8013473268411L301.7804998397827,184.97210802508218L308.96574983596804,186.07329870492276L316.1509998321533,186.7986689459076L323.3362498283386,187.23391668271302L330.52149982452397,190.92286999563055L337.7067498207092,192.58084573902445L344.89199981689455,193.68167742858242L352.07724981307985,194.6869803458603L359.26249980926514,195.5018449868697L366.4477498054504,196.3303145158852L373.6329998016358,197.75328360117348L380.818249797821,198.57563825285683L388.00349979400636,199.96197048078295L395.18874979019165,199.23445170779928L402.37399978637694,201.7633799771137L409.55924978256223,204.03001880220197L416.7444997787476,205.298358519629L423.9297497749328,205.86705368621662L431.11499977111816,207.33748002172732L438.30024976730346,208.45048061946224L445.4854997634888,209.17686958407845L452.6707497596741,209.2556365648529L459.8559997558594,211.16972952367422L467.0412497520446,211.53009866004012L474.22649974823,212.23829444677452L481.4117497444153,213.00580908666925L488.59699974060055,214.74149429726586L495.78224973678584,217.4626622099545L502.96749973297125,218.65311447116628L510.1527497291565,218.39622707542014L517.3379997253418,219.20285971132884L524.523249721527,220.45450209633336L531.7084997177125,221.24923826036724L538.8937497138977,222.55936630177413L546.0789997100829,224.67082665545507L553.2642497062684,224.63432014629728L560.4494997024536,225.92059643868745L567.6347496986389,226.8163593179891L574.8199996948242,227.2163030388117L582.0052496910096,228.57644675811096L589.1904996871948,229.4471484454241L596.3757496833801,229.70093637297342L603.5609996795654,230.46646179759034L610.7462496757507,231.4161078247648L617.9314996719361,231.89049375487056L625.1167496681213,231.63812538528356L632.3019996643065,233.37880964626157L639.487249660492,234.87608765008133L646.6724996566772,235.35019266288688L653.8577496528625,236.67582327595167L661.0429996490479,236.1813435053735L668.2282496452332,237.47775832974514L675.4134996414184,237.81032511487487L682.5987496376038,238.37067689245615L689.7839996337891,238.62886880512207L696.9692496299743,238.95288603992896L704.1544996261597,239.05657697025572L711.3397496223449,238.58467162272407L718.5249996185303,240.25516632532248L725.7102496147156,240.08395533412468L732.8954996109009,240.342421888813L740.0807496070861,241.76363113941892L747.2659996032716,242.84408834327886L754.4512495994568,242.09306625413214L761.636499595642,243.62626586145365L768.8217495918275,244.20668864159106L776.0069995880127,244.0589154939109L783.192249584198,243.83208735359466" fill="none"></path></g><g><path style="fill: none;" stroke="rgb(204, 51, 17)" stroke-width="2px" d="M71.85249996185303,9.350670857429293L79.03774995803832,28.858227349205265" fill="none"></path></g><g><path style="fill: none;" stroke="rgb(187, 187, 187)" stroke-width="2px" d="M71.85249996185303,-24.090351696073185L79.03774995803832,5.691699005287546L86.22299995422364,18.078451252591833L93.40824995040894,28.710904816019593L100.59349994659424,32.60292742087876L107.77874994277954,34.340509303823126L114.96399993896485,42.47253007945733L122.14924993515014,45.71972425571488L129.33449993133544,49.31677358760055L136.51974992752073,52.1091594813758L143.70499992370605,56.68578527766766L150.89024991989135,61.014905509816685L158.07549991607664,63.89468676287498L165.26074991226199,65.13478578208571L172.44599990844728,66.51531199032564L179.63124990463257,71.00987704160241L186.8164999008179,78.76288323915907L194.00174989700318,84.76899268729176L201.18699989318847,90.88754820127554L208.3722498893738,92.90715970059262L215.55749988555908,97.51320171956263L222.7427498817444,98.52643342140578L229.9279998779297,102.10362083815778L237.113249874115,104.85693966500958L244.29849987030028,112.04254334559818L251.48374986648562,112.92242626567145L258.6689998626709,113.74977524276761L265.85424985885624,116.0509989336756L273.03949985504147,117.45390202071769L280.2247498512268,119.51475581153159L287.4099998474121,123.47725370625969L294.5952498435974,122.55224990518758L301.7804998397827,123.2680721258761L308.96574983596804,125.51493868235124L316.1509998321533,130.24242771693176L323.3362498283386,131.0533824463491L330.52149982452397,130.85496574025765L337.7067498207092,133.23899526015742L344.89199981689455,136.48094931990616L352.07724981307985,136.94755689430127L359.26249980926514,137.7420341554294L366.4477498054504,137.23533510568257L373.6329998016358,136.2506986549283L380.818249797821,136.86532756046915L388.00349979400636,140.37446544851767L395.18874979019165,142.83953363830497L402.37399978637694,142.83104962896402L409.55924978256223,143.62931381852346L416.7444997787476,144.57431875980544L423.9297497749328,148.07854472277018L431.11499977111816,149.63964129908754L438.30024976730346,153.52068517758602L445.4854997634888,151.29541572035546L452.6707497596741,154.86915797266585L459.8559997558594,158.55119166971573L467.0412497520446,158.48181534323652L474.22649974823,160.30057618863694L481.4117497444153,164.17872110970848L488.59699974060055,162.69824980068972L495.78224973678584,163.6285075780332L502.96749973297125,166.31811910911702L510.1527497291565,163.39236219285218L517.3379997253418,167.1511746577632L524.523249721527,167.58083031997637L531.7084997177125,171.35077077181379L538.8937497138977,172.34707164866984L546.0789997100829,173.29123817147823L553.2642497062684,173.09175465448735L560.4494997024536,176.14323748330287L567.6347496986389,178.5035289704055L574.8199996948242,180.05222583142606L582.0052496910096,183.17536528819647L589.1904996871948,182.99088065393207L596.3757496833801,183.78549980460457L603.5609996795654,185.45395524612195L610.7462496757507,185.59798518720729L617.9314996719361,188.4928725299643L625.1167496681213,185.57484470200012L632.3019996643065,187.02370420119877L639.487249660492,188.83319729736067L646.6724996566772,188.84879476945486L653.8577496528625,189.3131711163133L661.0429996490479,191.15464274083126L668.2282496452332,192.213598965947L675.4134996414184,195.57134350373872L682.5987496376038,195.17059648040484L689.7839996337891,196.34758497595135L696.9692496299743,197.6749872819319L704.1544996261597,198.29227850182684L711.3397496223449,196.11731801863874L718.5249996185303,197.07110836248714L725.7102496147156,197.49125085076753L732.8954996109009,199.90476591656605L740.0807496070861,200.8454432534684L747.2659996032716,202.58520580243623L754.4512495994568,202.11084377510974L761.636499595642,202.649820667923L768.8217495918275,201.37376806866232L776.0069995880127,204.3970523903833L783.192249584198,203.85984476621647" fill="none"></path></g><g><path style="fill: none;" stroke="rgb(0, 153, 136)" stroke-width="2px" d="M71.85249996185303,-26.003531059219654L79.03774995803832,4.946768534867033L86.22299995422364,19.07129890812047L93.40824995040894,29.370963863927045L100.59349994659424,33.02141504999298L107.77874994277954,35.204348888189145L114.96399993896485,42.42811152513474L122.14924993515014,45.299585112801026L129.33449993133544,49.69971156108221L136.51974992752073,51.72162010008151L143.70499992370605,56.92374827719033L150.89024991989135,60.39633271632778L158.07549991607664,63.530131538982744L165.26074991226199,66.1850263516526L172.44599990844728,66.97515248057152L179.63124990463257,71.28107912339345L186.8164999008179,78.98223358259474L194.00174989700318,85.14760974857046L201.18699989318847,91.07227173993715L208.3722498893738,94.13359624215775L215.55749988555908,99.49526698668183L222.7427498817444,102.49825563205655L229.9279998779297,107.45449420602984L237.113249874115,108.44290778088782L244.29849987030028,113.58794675955431L251.48374986648562,114.33715724191558L258.6689998626709,113.61683453118223L265.85424985885624,114.77312420360101L273.03949985504147,117.57164394946568L280.2247498512268,120.09743568918037L287.4099998474121,124.92006174839284L294.5952498435974,123.2530079759861L301.7804998397827,126.49427260632174L308.96574983596804,127.91863050925849L316.1509998321533,128.54083641180833L323.3362498283386,130.24094637969327L330.52149982452397,130.9376511657707L337.7067498207092,133.00673300867098L344.89199981689455,135.45795516099767L352.07724981307985,136.38955858431427L359.26249980926514,136.58128584181662L366.4477498054504,135.3050744853542L373.6329998016358,135.36795941951263L380.818249797821,135.53496112402908L388.00349979400636,138.04739682893316L395.18874979019165,141.19200607380134L402.37399978637694,141.99518193225725L409.55924978256223,142.38851077306268L416.7444997787476,143.98790277573707L423.9297497749328,146.3905032012098L431.11499977111816,147.8759165902918L438.30024976730346,150.33009748080636L445.4854997634888,150.42160862293787L452.6707497596741,154.70099802503898L459.8559997558594,156.36622991720222L467.0412497520446,157.80424855325617L474.22649974823,156.4447580186979L481.4117497444153,160.4285472716957L488.59699974060055,159.55961905440714L495.78224973678584,161.45616468914022L502.96749973297125,163.53862661978945L510.1527497291565,162.77873424283163L517.3379997253418,167.20456653673696L524.523249721527,165.30196657676814L531.7084997177125,170.01876543469118L538.8937497138977,171.166789065615L546.0789997100829,170.69341071754457L553.2642497062684,170.32850245303317L560.4494997024536,173.20742683534834L567.6347496986389,174.25585405673314L574.8199996948242,175.74353068539295L582.0052496910096,179.1071084316584L589.1904996871948,177.6101896026931L596.3757496833801,179.56440177754217L603.5609996795654,179.89116520448584L610.7462496757507,179.68501347902586L617.9314996719361,183.2754857560098L625.1167496681213,180.98765914880073L632.3019996643065,182.29890809469916L639.487249660492,184.8453738972228L646.6724996566772,185.85114764446132L653.8577496528625,185.16737777436143L661.0429996490479,185.44207466621697L668.2282496452332,187.03931074491447L675.4134996414184,190.9576800439023L682.5987496376038,191.16284720902303L689.7839996337891,192.66585433196434L696.9692496299743,195.09508911255017L704.1544996261597,194.5346229398056L711.3397496223449,191.9900397065234L718.5249996185303,193.05135682695447L725.7102496147156,194.20685824764922L732.8954996109009,195.5953682320071L740.0807496070861,197.04895126570122L747.2659996032716,199.15387334979636L754.4512495994568,199.1436469887935L761.636499595642,199.35545075115076L768.8217495918275,198.3547061835325L776.0069995880127,200.59107847686525L783.192249584198,200.51517330109655" fill="none"></path></g></g></g></g><g opacity="0.2"><g><g><g><path style="fill: none;" stroke="rgb(51, 187, 238)" stroke-width="2px" d="M71.85249996185303,38.91328948847024L79.03774995803832,96.55540506101033L86.22299995422364,132.12109018747222L93.40824995040894,154.80040522271588L100.59349994659424,170.40159917920897L107.77874994277954,188.15533432087383L114.96399993896485,195.3030879296681L122.14924993515014,202.95917180787904L129.33449993133544,209.0931064994704L136.51974992752073,211.1823128025362L143.70499992370605,214.40668294648407L150.89024991989135,217.3341036300487L158.07549991607664,220.657674529114L165.26074991226199,222.36304431041114L172.44599990844728,224.52422556135122L179.63124990463257,229.18585464573295L186.8164999008179,229.30447314865856L194.00174989700318,230.28584381886498L201.18699989318847,232.4110055956243L208.3722498893738,234.35647960459798L215.55749988555908,233.8442069051715L222.7427498817444,235.7957481603291L229.9279998779297,237.57718252063086L237.113249874115,238.11865224230547L244.29849987030028,238.5422138664621L251.48374986648562,238.74531301245548L258.6689998626709,241.38041787090825L265.85424985885624,241.20958777054727L273.03949985504147,242.68701341673068L280.2247498512268,242.40111044043348L287.4099998474121,243.51105808936953L294.5952498435974,245.04571297118264L301.7804998397827,245.80625636044888L308.96574983596804,244.44088916725593L316.1509998321533,247.04428818436338L323.3362498283386,246.56802855906886L330.52149982452397,246.99502060933798L337.7067498207092,248.974235675149L344.89199981689455,248.3650470379971L352.07724981307985,249.92551971633563L359.26249980926514,250.6383059420737L366.4477498054504,250.05475590008314L373.6329998016358,251.83765587154113L380.818249797821,252.86939492515233L388.00349979400636,252.42470034013132L395.18874979019165,252.28610728515918L402.37399978637694,252.88148461717924L409.55924978256223,253.85529042980187L416.7444997787476,252.6854063246287L423.9297497749328,254.70077526564353L431.11499977111816,254.78702232215727L438.30024976730346,255.74780403564026L445.4854997634888,257.32054560736975L452.6707497596741,256.19882826884265L459.8559997558594,255.61271180731643L467.0412497520446,258.25175909577905L474.22649974823,258.34887343501464L481.4117497444153,258.7350843748574L488.59699974060055,257.46896273712287L495.78224973678584,260.1596264184901L502.96749973297125,259.4692787635547L510.1527497291565,258.89547599576053L517.3379997253418,260.39233858989826L524.523249721527,260.1586216108415L531.7084997177125,261.1285425938928L538.8937497138977,261.76518103999297L546.0789997100829,261.97318902335246L553.2642497062684,261.8362151807058L560.4494997024536,263.80581737334353L567.6347496986389,263.11133528693676L574.8199996948242,263.96508898572114L582.0052496910096,264.6210363788013L589.1904996871948,264.6890304963734L596.3757496833801,264.22543016744163L603.5609996795654,264.7645382711396L610.7462496757507,265.25396919669424L617.9314996719361,265.6842764721988L625.1167496681213,265.8325848011238L632.3019996643065,266.6214868062562L639.487249660492,267.27330616791374L646.6724996566772,266.344140695094L653.8577496528625,267.4694932612924L661.0429996490479,267.05454610270925L668.2282496452332,267.7303272467642L675.4134996414184,268.3014419940971L682.5987496376038,268.0836739364438L689.7839996337891,268.434223804834L696.9692496299743,269.3608740585079L704.1544996261597,267.92080549668714L711.3397496223449,269.4333802104257L718.5249996185303,268.8947137100892L725.7102496147156,270.6528070927191L732.8954996109009,269.13916357084474L740.0807496070861,269.3958119244554L747.2659996032716,270.14007358978495L754.4512495994568,269.21202812549075L761.636499595642,270.9119130650372L768.8217495918275,270.2369191269745L776.0069995880127,270.13599035870334L783.192249584198,269.9298767897642" fill="none"></path></g><g><path style="fill: none;" stroke="rgb(238, 51, 119)" stroke-width="2px" d="M71.85249996185303,19.65318768032256L79.03774995803832,53.57946192756731L86.22299995422364,72.98522884451972L93.40824995040894,98.99774045209938L100.59349994659424,117.8638552612129L107.77874994277954,126.58822247121057L114.96399993896485,136.46328004027836L122.14924993515014,147.36116779514296L129.33449993133544,143.06230627215263L136.51974992752073,150.65464566513972L143.70499992370605,160.83895358822528L150.89024991989135,166.0258218707347L158.07549991607664,172.49675752758182L165.26074991226199,179.57558261169123L172.44599990844728,179.20370138092645L179.63124990463257,183.70918207670462L186.8164999008179,186.15912072566977L194.00174989700318,189.73837357098938L201.18699989318847,190.5043570016653L208.3722498893738,192.62800836692736L215.55749988555908,196.47282483372075L222.7427498817444,197.13874990275113L229.9279998779297,199.44637706843938L237.113249874115,199.37016528831433L244.29849987030028,203.3192769490041L251.48374986648562,206.4158509201658L258.6689998626709,200.7602686697995L265.85424985885624,202.9826343864765L273.03949985504147,207.00543620809674L280.2247498512268,211.3560101247225L287.4099998474121,210.09683893989492L294.5952498435974,212.89776906061175L301.7804998397827,215.83343300692422L308.96574983596804,215.22643958648234L316.1509998321533,215.65946688269182L323.3362498283386,217.5982336406098L330.52149982452397,220.20255426473258L337.7067498207092,219.67800627186637L344.89199981689455,219.20518347273304L352.07724981307985,223.22579647769197L359.26249980926514,221.2239508396167L366.4477498054504,222.1295321329134L373.6329998016358,223.99585033935207L380.818249797821,223.77973349426782L388.00349979400636,228.72766235796723L395.18874979019165,226.7256375185279L402.37399978637694,228.19767432369136L409.55924978256223,227.69333768467425L416.7444997787476,228.488774139547L423.9297497749328,230.09784878784433L431.11499977111816,231.50313308488683L438.30024976730346,234.66750917215913L445.4854997634888,234.1014376632154L452.6707497596741,232.52907369436022L459.8559997558594,234.2956535415892L467.0412497520446,235.4227533210875L474.22649974823,236.14457641561438L481.4117497444153,238.77931647129026L488.59699974060055,237.8463045691914L495.78224973678584,239.4764609779634L502.96749973297125,238.28659592069496L510.1527497291565,241.9820608506225L517.3379997253418,241.85110945381874L524.523249721527,241.79573623231707L531.7084997177125,243.20457895644637L538.8937497138977,243.02344477765064L546.0789997100829,244.27094867366665L553.2642497062684,244.20292895589967L560.4494997024536,246.32213868735195L567.6347496986389,246.41692340885447L574.8199996948242,245.9396013754729L582.0052496910096,246.15774703600056L589.1904996871948,247.10073021400086L596.3757496833801,247.66918894111615L603.5609996795654,250.52989551685215L610.7462496757507,249.6996299968601L617.9314996719361,250.23034763668977L625.1167496681213,252.61698340379252L632.3019996643065,252.80714805132834L639.487249660492,252.81068727826897L646.6724996566772,255.08413178375838L653.8577496528625,255.1292457271663L661.0429996490479,255.865219329407L668.2282496452332,254.8910807142511L675.4134996414184,257.0147448796106L682.5987496376038,256.4633550824242L689.7839996337891,255.2454962120665L696.9692496299743,255.8454495789194L704.1544996261597,255.27468683426594L711.3397496223449,257.8406583664749L718.5249996185303,258.74077401816703L725.7102496147156,259.5425529213186L732.8954996109009,257.5564706032339L740.0807496070861,258.66878627019537L747.2659996032716,259.25363552207557L754.4512495994568,258.71313860780594L761.636499595642,259.89760842400574L768.8217495918275,259.3654315730686L776.0069995880127,260.5011458181403L783.192249584198,258.81463058036417" fill="none"></path></g><g><path style="fill: none;" stroke="rgb(51, 187, 238)" stroke-width="2px" d="M71.85249996185303,10.80701474313804L79.03774995803832,39.45609042027803L86.22299995422364,46.33074115020963L93.40824995040894,57.222728060156896L100.59349994659424,72.92304597118289L107.77874994277954,82.13438008797903L114.96399993896485,95.95927892329036L122.14924993515014,105.93923329083395L129.33449993133544,114.57059499287254L136.51974992752073,114.99893745342092L143.70499992370605,122.27479443733978L150.89024991989135,126.44905981190257L158.07549991607664,137.02347630449967L165.26074991226199,140.81812918944723L172.44599990844728,142.96261911333266L179.63124990463257,138.16253137500183L186.8164999008179,141.1480389007243L194.00174989700318,144.33358634915325L201.18699989318847,151.1027002757373L208.3722498893738,156.45457461427497L215.55749988555908,163.27948416557604L222.7427498817444,165.6128139269128L229.9279998779297,166.28699505878842L237.113249874115,169.86198547166236L244.29849987030028,165.4808833226553L251.48374986648562,176.4605893003213L258.6689998626709,172.44064190042891L265.85424985885624,174.41747614811715L273.03949985504147,177.26571542895195L280.2247498512268,182.1128435253546L287.4099998474121,187.48655483011558L294.5952498435974,182.3459588998319L301.7804998397827,189.7282486939187L308.96574983596804,187.72508464580767L316.1509998321533,187.88672427621066L323.3362498283386,187.8867882766978L330.52149982452397,196.45629990793282L337.7067498207092,195.06780933872437L344.89199981689455,195.33292495678796L352.07724981307985,196.19493471841756L359.26249980926514,196.7241419467499L366.4477498054504,197.57301880841172L373.6329998016358,199.88773722807872L380.818249797821,199.8091702300257L388.00349979400636,202.04146882231188L395.18874979019165,198.14317354843712L402.37399978637694,205.5567723808487L409.55924978256223,207.42997703970713L416.7444997787476,207.20086809572683L423.9297497749328,206.72009643608666L431.11499977111816,209.54311952497545L438.30024976730346,210.1199815160565L445.4854997634888,210.2664530309996L452.6707497596741,209.37378703601433L459.8559997558594,214.0408689619032L467.0412497520446,212.07065236458863L474.22649974823,213.30058812687577L481.4117497444153,214.1570810465111L488.59699974060055,217.34502211316033L495.78224973678584,221.54441407898707L502.96749973297125,220.4387928629839L510.1527497291565,218.01089598180096L517.3379997253418,220.41280866519182L524.523249721527,222.33196567384016L531.7084997177125,222.44134250641804L538.8937497138977,224.5245583638845L546.0789997100829,227.83801718597653L553.2642497062684,224.5795603825606L560.4494997024536,227.85001087727267L567.6347496986389,228.1600036369416L574.8199996948242,227.81621862004556L582.0052496910096,230.61666233705986L589.1904996871948,230.7532009763938L596.3757496833801,230.08161826429736L603.5609996795654,231.61474993451577L610.7462496757507,232.84057686552646L617.9314996719361,232.6020726500292L625.1167496681213,231.25957283090298L632.3019996643065,235.9898360377286L639.487249660492,237.12200465581097L646.6724996566772,236.0613501820952L653.8577496528625,238.66426919554888L661.0429996490479,235.4396238495062L668.2282496452332,239.4223805663026L675.4134996414184,238.30917529256942L682.5987496376038,239.21120455882803L689.7839996337891,239.016156674121L696.9692496299743,239.43891189213926L704.1544996261597,239.2121133657459L711.3397496223449,237.8768136014266L718.5249996185303,242.7609083792201L725.7102496147156,239.82713884732792L732.8954996109009,240.7301217208454L740.0807496070861,243.89544501532785L747.2659996032716,244.4647741490687L754.4512495994568,240.9665331204121L761.636499595642,245.92606527243592L768.8217495918275,245.07732281179716L776.0069995880127,243.8372557723906L783.192249584198,243.49184514312034" fill="none"></path></g><g><path style="fill: none;" stroke="rgb(204, 51, 17)" stroke-width="2px" d="M71.85249996185303,9.350670857429293L79.03774995803832,40.56276124427086" fill="none"></path></g><g><path style="fill: none;" stroke="rgb(187, 187, 187)" stroke-width="2px" d="M71.85249996185303,-24.090351696073185L79.03774995803832,23.560929426103996L86.22299995422364,29.969733410003982L93.40824995040894,41.214670206610435L100.59349994659424,37.684352133782966L107.77874994277954,36.74421057741313L114.96399993896485,54.10144990094659L122.14924993515014,50.45416453776255L129.33449993133544,54.6217226612697L136.51974992752073,56.2555270978105L143.70499992370605,63.509214312972745L150.89024991989135,67.48502697691094L158.07549991607664,68.20495565701748L165.26074991226199,66.99250482782588L172.44599990844728,68.58447854595067L179.63124990463257,77.74855470301867L186.8164999008179,90.38911172310458L194.00174989700318,93.77663190895265L201.18699989318847,100.06444937190167L208.3722498893738,95.9363923490775L215.55749988555908,104.42201214172667L222.7427498817444,100.04624763334982L229.9279998779297,107.4693313379604L237.113249874115,108.98688528960099L244.29849987030028,122.82089779428568L251.48374986648562,114.2422468934825L258.6689998626709,114.99079659145258L265.85424985885624,119.50283093711727L273.03949985504147,119.55825535900868L280.2247498512268,122.60603535875L287.4099998474121,129.42099923434446L294.5952498435974,121.16474438762424L301.7804998397827,124.34180537145411L308.96574983596804,128.88523835612563L316.1509998321533,137.33366106563014L323.3362498283386,132.2698145195638L330.52149982452397,130.55734068419048L337.7067498207092,136.81503951787613L344.89199981689455,141.34388039147228L352.07724981307985,137.6474682543346L359.26249980926514,138.93375004552846L366.4477498054504,136.47528653167194L373.6329998016358,134.77374397950769L380.818249797821,137.7872709185143L388.00349979400636,145.63817227967849L395.18874979019165,146.53713592260152L402.37399978637694,142.81832361495344L409.55924978256223,144.82671010281774L416.7444997787476,145.99182617169654L423.9297497749328,153.33488366714656L431.11499977111816,151.9812861635446L438.30024976730346,159.3422509953055L445.4854997634888,147.9575115345193L452.6707497596741,160.22977135112208L459.8559997558594,164.07424221528473L467.0412497520446,158.37775085351777L474.22649974823,163.02871745673656L481.4117497444153,169.9959384913145L488.59699974060055,160.47754283716188L495.78224973678584,165.02389424404845L502.96749973297125,170.3525364057425L510.1527497291565,159.00372681845502L517.3379997253418,172.78939335512956L524.523249721527,168.22531381329622L531.7084997177125,177.00568144956986L538.8937497138977,173.84152296395396L546.0789997100829,174.70748795569085L553.2642497062684,172.79252937900102L560.4494997024536,180.72046172652608L567.6347496986389,182.0439662010595L574.8199996948242,182.37527112295692L582.0052496910096,187.860074473352L589.1904996871948,182.71415370253558L596.3757496833801,184.97742853061325L603.5609996795654,187.95663840839794L610.7462496757507,185.8140300988354L617.9314996719361,192.83520354409976L625.1167496681213,181.19780296005382L632.3019996643065,189.1969934499968L639.487249660492,191.54743694160348L646.6724996566772,188.87219097759612L653.8577496528625,190.009735636601L661.0429996490479,193.91685017760813L668.2282496452332,193.8020333036206L675.4134996414184,200.60796031042628L682.5987496376038,194.56947594540404L689.7839996337891,198.11306771927113L696.9692496299743,199.66609074090275L704.1544996261597,199.21821533166926L711.3397496223449,192.85487729385662L718.5249996185303,198.50179387825978L725.7102496147156,198.12146458318816L732.8954996109009,203.52503851526384L740.0807496070861,202.2564592588219L747.2659996032716,205.19484962588794L754.4512495994568,201.39930073411995L761.636499595642,203.45828600714287L768.8217495918275,199.45968916977128L776.0069995880127,208.9319788729648L783.192249584198,203.05403332996622" fill="none"></path></g><g><path style="fill: none;" stroke="rgb(0, 153, 136)" stroke-width="2px" d="M71.85249996185303,-26.003531059219654L79.03774995803832,23.51694829131901L86.22299995422364,32.63084806644372L93.40824995040894,41.48336985195567L100.59349994659424,37.78744411852051L107.77874994277954,38.22413224259623L114.96399993896485,52.75820767616915L122.14924993515014,49.48622116976492L129.33449993133544,56.18904339173565L136.51974992752073,54.72391863918682L143.70499992370605,64.67975762316377L150.89024991989135,65.58631172386549L158.07549991607664,68.22059737608242L165.26074991226199,70.16216735533862L172.44599990844728,68.15941291034551L179.63124990463257,77.73693221454812L186.8164999008179,90.53070640092511L194.00174989700318,94.39410860919338L201.18699989318847,99.95836216436447L208.3722498893738,98.7253031783033L215.55749988555908,107.53747905670173L222.7427498817444,107.00263978549816L229.9279998779297,114.8887542147047L237.113249874115,109.9255164344736L244.29849987030028,121.30546865881922L251.48374986648562,115.46096977041702L258.6689998626709,112.53635230819049L265.85424985885624,116.50755693705224L273.03949985504147,121.76942099043049L280.2247498512268,123.88612190278559L287.4099998474121,132.15399923797634L294.5952498435974,120.7524276490638L301.7804998397827,131.35616916488337L308.96574983596804,130.0551672616398L316.1509998321533,129.47414523889253L323.3362498283386,132.79111128768164L330.52149982452397,131.98270833410774L337.7067498207092,136.11035575381408L344.89199981689455,139.13478837583486L352.07724981307985,137.78696371617588L359.26249980926514,136.86887672768566L366.4477498054504,133.3907574521961L373.6329998016358,135.46228682070483L380.818249797821,135.78546368073134L388.00349979400636,141.81605038563646L395.18874979019165,145.90891994061323L402.37399978637694,143.19994571986592L409.55924978256223,142.97850403424889L416.7444997787476,146.38699077969474L423.9297497749328,149.99440383937028L431.11499977111816,150.10403667389684L438.30024976730346,154.0113688165604L445.4854997634888,150.55887533613472L452.6707497596741,161.1200821281794L459.8559997558594,158.86407775544453L467.0412497520446,159.9612765073358L474.22649974823,154.40552221686124L481.4117497444153,166.40423115119108L488.59699974060055,158.25622672847453L495.78224973678584,164.30098314123964L502.96749973297125,166.6623195157631L510.1527497291565,161.63889567739494L517.3379997253418,173.8433149775948L524.523249721527,162.4480666368149L531.7084997177125,177.09396372157568L538.8937497138977,172.88882451200084L546.0789997100829,169.98334319543895L553.2642497062684,169.781140056266L560.4494997024536,177.52581340882116L567.6347496986389,175.82849488881033L574.8199996948242,177.97504562838273L582.0052496910096,184.15247505105654L589.1904996871948,175.3648113592452L596.3757496833801,182.49572003981567L603.5609996795654,180.38131034490132L610.7462496757507,179.37578589083597L617.9314996719361,188.66119417148565L625.1167496681213,177.55591923798715L632.3019996643065,184.26578151354684L639.487249660492,188.66507260100832L646.6724996566772,187.35980826531906L653.8577496528625,184.14172296921157L661.0429996490479,185.85412000400026L668.2282496452332,189.4351648629607L675.4134996414184,196.83523399238402L682.5987496376038,191.47059795670413L689.7839996337891,194.92036501637625L696.9692496299743,198.73894128342891L704.1544996261597,193.69392368068873L711.3397496223449,188.17316485660012L718.5249996185303,194.64333250760117L725.7102496147156,195.94011037869134L732.8954996109009,197.67813320854393L740.0807496070861,199.2293258162424L747.2659996032716,202.31125647593902L754.4512495994568,199.12830744728925L761.636499595642,199.6731563946866L768.8217495918275,196.85358933210512L776.0069995880127,203.9456369168644L783.192249584198,200.40131553744354" fill="none"></path></g></g></g></g></g></g><g transform="translate(61, 377)" clip-path="url(#clip_1)"><clipPath id="clip_1"><rect width="862" height="22"></rect></clipPath><g><g><line x1="0" y1="0" x2="0" y2="5" style="visibility: inherit;" fill="rgb(0, 0, 0)" stroke="rgb(204, 204, 204)" stroke-width="1px"></line><line x1="71.85249996185303" y1="0" x2="71.85249996185303" y2="5" style="visibility: inherit;" fill="rgb(0, 0, 0)" stroke="rgb(204, 204, 204)" stroke-width="1px"></line><line x1="143.70499992370605" y1="0" x2="143.70499992370605" y2="5" style="visibility: inherit;" fill="rgb(0, 0, 0)" stroke="rgb(204, 204, 204)" stroke-width="1px"></line><line x1="215.55749988555908" y1="0" x2="215.55749988555908" y2="5" style="visibility: inherit;" fill="rgb(0, 0, 0)" stroke="rgb(204, 204, 204)" stroke-width="1px"></line><line x1="287.4099998474121" y1="0" x2="287.4099998474121" y2="5" style="visibility: inherit;" fill="rgb(0, 0, 0)" stroke="rgb(204, 204, 204)" stroke-width="1px"></line><line x1="359.26249980926514" y1="0" x2="359.26249980926514" y2="5" style="visibility: inherit;" fill="rgb(0, 0, 0)" stroke="rgb(204, 204, 204)" stroke-width="1px"></line><line x1="431.11499977111816" y1="0" x2="431.11499977111816" y2="5" style="visibility: inherit;" fill="rgb(0, 0, 0)" stroke="rgb(204, 204, 204)" stroke-width="1px"></line><line x1="502.96749973297125" y1="0" x2="502.96749973297125" y2="5" style="visibility: inherit;" fill="rgb(0, 0, 0)" stroke="rgb(204, 204, 204)" stroke-width="1px"></line><line x1="574.8199996948242" y1="0" x2="574.8199996948242" y2="5" style="visibility: inherit;" fill="rgb(0, 0, 0)" stroke="rgb(204, 204, 204)" stroke-width="1px"></line><line x1="646.6724996566772" y1="0" x2="646.6724996566772" y2="5" style="visibility: inherit;" fill="rgb(0, 0, 0)" stroke="rgb(204, 204, 204)" stroke-width="1px"></line><line x1="718.5249996185303" y1="0" x2="718.5249996185303" y2="5" style="visibility: inherit;" fill="rgb(0, 0, 0)" stroke="rgb(204, 204, 204)" stroke-width="1px"></line><line x1="790.3774995803833" y1="0" x2="790.3774995803833" y2="5" style="visibility: inherit;" fill="rgb(0, 0, 0)" stroke="rgb(204, 204, 204)" stroke-width="1px"></line><line x1="862.2299995422363" y1="0" x2="862.2299995422363" y2="5" style="visibility: inherit;" fill="rgb(0, 0, 0)" stroke="rgb(204, 204, 204)" stroke-width="1px"></line></g><g transform="translate(0, 8)"><text style="text-anchor: middle; visibility: hidden; font-family: &quot;Helvetica Neue&quot;, sans-serif; font-size: 12px; font-weight: 200;" x="0" y="0" dx="0em" dy="0.95em" fill="rgb(50, 49, 63)" stroke="none" stroke-width="1px">-10</text><text style="text-anchor: middle; visibility: inherit; font-family: &quot;Helvetica Neue&quot;, sans-serif; font-size: 12px; font-weight: 200;" x="71.85249996185303" y="0" dx="0em" dy="0.95em" fill="rgb(50, 49, 63)" stroke="none" stroke-width="1px">0</text><text style="text-anchor: middle; visibility: inherit; font-family: &quot;Helvetica Neue&quot;, sans-serif; font-size: 12px; font-weight: 200;" x="143.70499992370605" y="0" dx="0em" dy="0.95em" fill="rgb(50, 49, 63)" stroke="none" stroke-width="1px">10</text><text style="text-anchor: middle; visibility: inherit; font-family: &quot;Helvetica Neue&quot;, sans-serif; font-size: 12px; font-weight: 200;" x="215.55749988555908" y="0" dx="0em" dy="0.95em" fill="rgb(50, 49, 63)" stroke="none" stroke-width="1px">20</text><text style="text-anchor: middle; visibility: inherit; font-family: &quot;Helvetica Neue&quot;, sans-serif; font-size: 12px; font-weight: 200;" x="287.4099998474121" y="0" dx="0em" dy="0.95em" fill="rgb(50, 49, 63)" stroke="none" stroke-width="1px">30</text><text style="text-anchor: middle; visibility: inherit; font-family: &quot;Helvetica Neue&quot;, sans-serif; font-size: 12px; font-weight: 200;" x="359.26249980926514" y="0" dx="0em" dy="0.95em" fill="rgb(50, 49, 63)" stroke="none" stroke-width="1px">40</text><text style="text-anchor: middle; visibility: inherit; font-family: &quot;Helvetica Neue&quot;, sans-serif; font-size: 12px; font-weight: 200;" x="431.11499977111816" y="0" dx="0em" dy="0.95em" fill="rgb(50, 49, 63)" stroke="none" stroke-width="1px">50</text><text style="text-anchor: middle; visibility: inherit; font-family: &quot;Helvetica Neue&quot;, sans-serif; font-size: 12px; font-weight: 200;" x="502.96749973297125" y="0" dx="0em" dy="0.95em" fill="rgb(50, 49, 63)" stroke="none" stroke-width="1px">60</text><text style="text-anchor: middle; visibility: inherit; font-family: &quot;Helvetica Neue&quot;, sans-serif; font-size: 12px; font-weight: 200;" x="574.8199996948242" y="0" dx="0em" dy="0.95em" fill="rgb(50, 49, 63)" stroke="none" stroke-width="1px">70</text><text style="text-anchor: middle; visibility: inherit; font-family: &quot;Helvetica Neue&quot;, sans-serif; font-size: 12px; font-weight: 200;" x="646.6724996566772" y="0" dx="0em" dy="0.95em" fill="rgb(50, 49, 63)" stroke="none" stroke-width="1px">80</text><text style="text-anchor: middle; visibility: inherit; font-family: &quot;Helvetica Neue&quot;, sans-serif; font-size: 12px; font-weight: 200;" x="718.5249996185303" y="0" dx="0em" dy="0.95em" fill="rgb(50, 49, 63)" stroke="none" stroke-width="1px">90</text><text style="text-anchor: middle; visibility: inherit; font-family: &quot;Helvetica Neue&quot;, sans-serif; font-size: 12px; font-weight: 200;" x="790.3774995803833" y="0" dx="0em" dy="0.95em" fill="rgb(50, 49, 63)" stroke="none" stroke-width="1px">100</text><text style="text-anchor: middle; visibility: hidden; font-family: &quot;Helvetica Neue&quot;, sans-serif; font-size: 12px; font-weight: 200;" x="862.2299995422363" y="0" dx="0em" dy="0.95em" fill="rgb(50, 49, 63)" stroke="none" stroke-width="1px">110</text></g><line x1="0" y1="0" x2="862.2299995422363" y2="0" fill="rgb(0, 0, 0)" stroke="rgb(204, 204, 204)" stroke-width="1px"></line></g></g></g></g></svg>