<svg viewBox="0 0 924 400" xmlns="http://www.w3.org/2000/svg"><g><g><g><g><g><line x1="61.77000045776367" y1="377.95999908447266" x2="56.77000045776367" y2="377.95999908447266" style="visibility: inherit;" fill="rgb(0, 0, 0)" stroke="rgb(204, 204, 204)" stroke-width="1px"></line><line x1="61.77000045776367" y1="343.59999916770244" x2="56.77000045776367" y2="343.59999916770244" style="visibility: inherit;" fill="rgb(0, 0, 0)" stroke="rgb(204, 204, 204)" stroke-width="1px"></line><line x1="61.77000045776367" y1="309.23999925093216" x2="56.77000045776367" y2="309.23999925093216" style="visibility: inherit;" fill="rgb(0, 0, 0)" stroke="rgb(204, 204, 204)" stroke-width="1px"></line><line x1="61.77000045776367" y1="274.87999933416194" x2="56.77000045776367" y2="274.87999933416194" style="visibility: inherit;" fill="rgb(0, 0, 0)" stroke="rgb(204, 204, 204)" stroke-width="1px"></line><line x1="61.77000045776367" y1="240.5199994173917" x2="56.77000045776367" y2="240.5199994173917" style="visibility: inherit;" fill="rgb(0, 0, 0)" stroke="rgb(204, 204, 204)" stroke-width="1px"></line><line x1="61.77000045776367" y1="206.15999950062144" x2="56.77000045776367" y2="206.15999950062144" style="visibility: inherit;" fill="rgb(0, 0, 0)" stroke="rgb(204, 204, 204)" stroke-width="1px"></line><line x1="61.77000045776367" y1="171.7999995838512" x2="56.77000045776367" y2="171.7999995838512" style="visibility: inherit;" fill="rgb(0, 0, 0)" stroke="rgb(204, 204, 204)" stroke-width="1px"></line><line x1="61.77000045776367" y1="137.43999966708103" x2="56.77000045776367" y2="137.43999966708103" style="visibility: inherit;" fill="rgb(0, 0, 0)" stroke="rgb(204, 204, 204)" stroke-width="1px"></line><line x1="61.77000045776367" y1="103.07999975031072" x2="56.77000045776367" y2="103.07999975031072" style="visibility: inherit;" fill="rgb(0, 0, 0)" stroke="rgb(204, 204, 204)" stroke-width="1px"></line><line x1="61.77000045776367" y1="68.7199998335405" x2="56.77000045776367" y2="68.7199998335405" style="visibility: inherit;" fill="rgb(0, 0, 0)" stroke="rgb(204, 204, 204)" stroke-width="1px"></line><line x1="61.77000045776367" y1="34.35999991677028" x2="56.77000045776367" y2="34.35999991677028" style="visibility: inherit;" fill="rgb(0, 0, 0)" stroke="rgb(204, 204, 204)" stroke-width="1px"></line><line x1="61.77000045776367" y1="0" x2="56.77000045776367" y2="0" style="visibility: inherit;" fill="rgb(0, 0, 0)" stroke="rgb(204, 204, 204)" stroke-width="1px"></line></g><g transform="translate(51.77000045776367, 0)"><text style="text-anchor: end; visibility: hidden; font-family: &quot;Helvetica Neue&quot;, sans-serif; font-size: 12px; font-weight: 200;" x="0" y="377.95999908447266" dx="0em" dy="0.3em" fill="rgb(50, 49, 63)" stroke="none" stroke-width="1px">-0.01</text><text style="text-anchor: end; visibility: inherit; font-family: &quot;Helvetica Neue&quot;, sans-serif; font-size: 12px; font-weight: 200;" x="0" y="343.59999916770244" dx="0em" dy="0.3em" fill="rgb(50, 49, 63)" stroke="none" stroke-width="1px">0</text><text style="text-anchor: end; visibility: inherit; font-family: &quot;Helvetica Neue&quot;, sans-serif; font-size: 12px; font-weight: 200;" x="0" y="309.23999925093216" dx="0em" dy="0.3em" fill="rgb(50, 49, 63)" stroke="none" stroke-width="1px">0.01</text><text style="text-anchor: end; visibility: inherit; font-family: &quot;Helvetica Neue&quot;, sans-serif; font-size: 12px; font-weight: 200;" x="0" y="274.87999933416194" dx="0em" dy="0.3em" fill="rgb(50, 49, 63)" stroke="none" stroke-width="1px">0.02</text><text style="text-anchor: end; visibility: inherit; font-family: &quot;Helvetica Neue&quot;, sans-serif; font-size: 12px; font-weight: 200;" x="0" y="240.5199994173917" dx="0em" dy="0.3em" fill="rgb(50, 49, 63)" stroke="none" stroke-width="1px">0.03</text><text style="text-anchor: end; visibility: inherit; font-family: &quot;Helvetica Neue&quot;, sans-serif; font-size: 12px; font-weight: 200;" x="0" y="206.15999950062144" dx="0em" dy="0.3em" fill="rgb(50, 49, 63)" stroke="none" stroke-width="1px">0.04</text><text style="text-anchor: end; visibility: inherit; font-family: &quot;Helvetica Neue&quot;, sans-serif; font-size: 12px; font-weight: 200;" x="0" y="171.7999995838512" dx="0em" dy="0.3em" fill="rgb(50, 49, 63)" stroke="none" stroke-width="1px">0.05</text><text style="text-anchor: end; visibility: inherit; font-family: &quot;Helvetica Neue&quot;, sans-serif; font-size: 12px; font-weight: 200;" x="0" y="137.43999966708103" dx="0em" dy="0.3em" fill="rgb(50, 49, 63)" stroke="none" stroke-width="1px">0.06</text><text style="text-anchor: end; visibility: inherit; font-family: &quot;Helvetica Neue&quot;, sans-serif; font-size: 12px; font-weight: 200;" x="0" y="103.07999975031072" dx="0em" dy="0.3em" fill="rgb(50, 49, 63)" stroke="none" stroke-width="1px">0.07</text><text style="text-anchor: end; visibility: inherit; font-family: &quot;Helvetica Neue&quot;, sans-serif; font-size: 12px; font-weight: 200;" x="0" y="68.7199998335405" dx="0em" dy="0.3em" fill="rgb(50, 49, 63)" stroke="none" stroke-width="1px">0.08</text><text style="text-anchor: end; visibility: inherit; font-family: &quot;Helvetica Neue&quot;, sans-serif; font-size: 12px; font-weight: 200;" x="0" y="34.35999991677028" dx="0em" dy="0.3em" fill="rgb(50, 49, 63)" stroke="none" stroke-width="1px">0.09</text><text style="text-anchor: end; visibility: hidden; font-family: &quot;Helvetica Neue&quot;, sans-serif; font-size: 12px; font-weight: 200;" x="0" y="0" dx="0em" dy="0.3em" fill="rgb(50, 49, 63)" stroke="none" stroke-width="1px">0.1</text></g><line x1="61.77000045776367" y1="0" x2="61.77000045776367" y2="377.95999908447266" fill="rgb(0, 0, 0)" stroke="rgb(204, 204, 204)" stroke-width="1px"></line></g></g><g transform="translate(61, 0)" clip-path="url(#clip_0)"><clipPath id="clip_0"><rect width="862" height="377"></rect></clipPath><g><g><g><line x1="0" y1="0" x2="0" y2="377.95999908447266" fill="rgb(0, 0, 0)" stroke="rgb(60, 60, 60)" stroke-width="1px" opacity="0.25"></line><line x1="71.85249996185303" y1="0" x2="71.85249996185303" y2="377.95999908447266" fill="rgb(0, 0, 0)" stroke="rgb(60, 60, 60)" stroke-width="1px" opacity="0.25"></line><line x1="143.70499992370605" y1="0" x2="143.70499992370605" y2="377.95999908447266" fill="rgb(0, 0, 0)" stroke="rgb(60, 60, 60)" stroke-width="1px" opacity="0.25"></line><line x1="215.55749988555908" y1="0" x2="215.55749988555908" y2="377.95999908447266" fill="rgb(0, 0, 0)" stroke="rgb(60, 60, 60)" stroke-width="1px" opacity="0.25"></line><line x1="287.4099998474121" y1="0" x2="287.4099998474121" y2="377.95999908447266" fill="rgb(0, 0, 0)" stroke="rgb(60, 60, 60)" stroke-width="1px" opacity="0.25"></line><line x1="359.26249980926514" y1="0" x2="359.26249980926514" y2="377.95999908447266" fill="rgb(0, 0, 0)" stroke="rgb(60, 60, 60)" stroke-width="1px" opacity="0.25"></line><line x1="431.11499977111816" y1="0" x2="431.11499977111816" y2="377.95999908447266" fill="rgb(0, 0, 0)" stroke="rgb(60, 60, 60)" stroke-width="1px" opacity="0.25"></line><line x1="502.96749973297125" y1="0" x2="502.96749973297125" y2="377.95999908447266" fill="rgb(0, 0, 0)" stroke="rgb(60, 60, 60)" stroke-width="1px" opacity="0.25"></line><line x1="574.8199996948242" y1="0" x2="574.8199996948242" y2="377.95999908447266" fill="rgb(0, 0, 0)" stroke="rgb(60, 60, 60)" stroke-width="1px" opacity="0.25"></line><line x1="646.6724996566772" y1="0" x2="646.6724996566772" y2="377.95999908447266" fill="rgb(0, 0, 0)" stroke="rgb(60, 60, 60)" stroke-width="1px" opacity="0.25"></line><line x1="718.5249996185303" y1="0" x2="718.5249996185303" y2="377.95999908447266" fill="rgb(0, 0, 0)" stroke="rgb(60, 60, 60)" stroke-width="1px" opacity="0.25"></line><line x1="790.3774995803833" y1="0" x2="790.3774995803833" y2="377.95999908447266" fill="rgb(0, 0, 0)" stroke="rgb(60, 60, 60)" stroke-width="1px" opacity="0.25"></line><line x1="862.2299995422363" y1="0" x2="862.2299995422363" y2="377.95999908447266" fill="rgb(0, 0, 0)" stroke="rgb(60, 60, 60)" stroke-width="1px" opacity="0.25"></line></g><g><line x1="0" y1="377.95999908447266" x2="862.2299995422363" y2="377.95999908447266" fill="rgb(0, 0, 0)" stroke="rgb(60, 60, 60)" stroke-width="1px" opacity="0.25"></line><line x1="0" y1="343.59999916770244" x2="862.2299995422363" y2="343.59999916770244" fill="rgb(0, 0, 0)" stroke="rgb(60, 60, 60)" stroke-width="1px" opacity="0.25"></line><line x1="0" y1="309.23999925093216" x2="862.2299995422363" y2="309.23999925093216" fill="rgb(0, 0, 0)" stroke="rgb(60, 60, 60)" stroke-width="1px" opacity="0.25"></line><line x1="0" y1="274.87999933416194" x2="862.2299995422363" y2="274.87999933416194" fill="rgb(0, 0, 0)" stroke="rgb(60, 60, 60)" stroke-width="1px" opacity="0.25"></line><line x1="0" y1="240.5199994173917" x2="862.2299995422363" y2="240.5199994173917" fill="rgb(0, 0, 0)" stroke="rgb(60, 60, 60)" stroke-width="1px" opacity="0.25"></line><line x1="0" y1="206.15999950062144" x2="862.2299995422363" y2="206.15999950062144" fill="rgb(0, 0, 0)" stroke="rgb(60, 60, 60)" stroke-width="1px" opacity="0.25"></line><line x1="0" y1="171.7999995838512" x2="862.2299995422363" y2="171.7999995838512" fill="rgb(0, 0, 0)" stroke="rgb(60, 60, 60)" stroke-width="1px" opacity="0.25"></line><line x1="0" y1="137.43999966708103" x2="862.2299995422363" y2="137.43999966708103" fill="rgb(0, 0, 0)" stroke="rgb(60, 60, 60)" stroke-width="1px" opacity="0.25"></line><line x1="0" y1="103.07999975031072" x2="862.2299995422363" y2="103.07999975031072" fill="rgb(0, 0, 0)" stroke="rgb(60, 60, 60)" stroke-width="1px" opacity="0.25"></line><line x1="0" y1="68.7199998335405" x2="862.2299995422363" y2="68.7199998335405" fill="rgb(0, 0, 0)" stroke="rgb(60, 60, 60)" stroke-width="1px" opacity="0.25"></line><line x1="0" y1="34.35999991677028" x2="862.2299995422363" y2="34.35999991677028" fill="rgb(0, 0, 0)" stroke="rgb(60, 60, 60)" stroke-width="1px" opacity="0.25"></line><line x1="0" y1="0" x2="862.2299995422363" y2="0" fill="rgb(0, 0, 0)" stroke="rgb(60, 60, 60)" stroke-width="1px" opacity="0.25"></line></g></g></g><g><g><line x1="0" y1="343.59999916770244" x2="862.2299995422363" y2="343.59999916770244" fill="rgb(0, 0, 0)" stroke="rgb(153, 153, 153)" stroke-width="1.5px"></line></g></g><g><g><line x1="71.85249996185303" y1="0" x2="71.85249996185303" y2="377.95999908447266" fill="rgb(0, 0, 0)" stroke="rgb(153, 153, 153)" stroke-width="1.5px"></line></g></g><g><g><g><g><g><path style="fill: none;" stroke="rgb(51, 187, 238)" stroke-width="2px" d="M71.85249996185303,38.91328948847024L79.03774995803832,96.55540506101033L86.22299995422364,132.12109018747222L93.40824995040894,154.80040522271588L100.59349994659424,170.40159917920897L107.77874994277954,188.15533432087383L114.96399993896485,195.3030879296681L122.14924993515014,202.95917180787904L129.33449993133544,209.0931064994704L136.51974992752073,211.1823128025362L143.70499992370605,214.40668294648407L150.89024991989135,217.3341036300487L158.07549991607664,220.657674529114L165.26074991226199,222.36304431041114L172.44599990844728,224.52422556135122L179.63124990463257,229.18585464573295L186.8164999008179,229.30447314865856L194.00174989700318,230.28584381886498L201.18699989318847,232.4110055956243L208.3722498893738,234.35647960459798L215.55749988555908,233.8442069051715L222.7427498817444,235.7957481603291L229.9279998779297,237.57718252063086L237.113249874115,238.11865224230547L244.29849987030028,238.5422138664621L251.48374986648562,238.74531301245548L258.6689998626709,241.38041787090825L265.85424985885624,241.20958777054727L273.03949985504147,242.68701341673068L280.2247498512268,242.40111044043348L287.4099998474121,243.51105808936953L294.5952498435974,245.04571297118264L301.7804998397827,245.80625636044888L308.96574983596804,244.44088916725593L316.1509998321533,247.04428818436338L323.3362498283386,246.56802855906886L330.52149982452397,246.99502060933798L337.7067498207092,248.974235675149L344.89199981689455,248.3650470379971L352.07724981307985,249.92551971633563L359.26249980926514,250.6383059420737L366.4477498054504,250.05475590008314L373.6329998016358,251.83765587154113L380.818249797821,252.86939492515233L388.00349979400636,252.42470034013132L395.18874979019165,252.28610728515918L402.37399978637694,252.88148461717924L409.55924978256223,253.85529042980187L416.7444997787476,252.6854063246287L423.9297497749328,254.70077526564353L431.11499977111816,254.78702232215727L438.30024976730346,255.74780403564026L445.4854997634888,257.32054560736975L452.6707497596741,256.19882826884265L459.8559997558594,255.61271180731643L467.0412497520446,258.25175909577905L474.22649974823,258.34887343501464L481.4117497444153,258.7350843748574L488.59699974060055,257.46896273712287L495.78224973678584,260.1596264184901L502.96749973297125,259.4692787635547L510.1527497291565,258.89547599576053L517.3379997253418,260.39233858989826L524.523249721527,260.1586216108415L531.7084997177125,261.1285425938928L538.8937497138977,261.76518103999297L546.0789997100829,261.97318902335246L553.2642497062684,261.8362151807058L560.4494997024536,263.80581737334353L567.6347496986389,263.11133528693676L574.8199996948242,263.96508898572114L582.0052496910096,264.6210363788013L589.1904996871948,264.6890304963734L596.3757496833801,264.22543016744163L603.5609996795654,264.7645382711396L610.7462496757507,265.25396919669424L617.9314996719361,265.6842764721988L625.1167496681213,265.8325848011238L632.3019996643065,266.6214868062562L639.487249660492,267.27330616791374L646.6724996566772,266.344140695094L653.8577496528625,267.4694932612924L661.0429996490479,267.05454610270925L668.2282496452332,267.7303272467642L675.4134996414184,268.3014419940971L682.5987496376038,268.0836739364438L689.7839996337891,268.434223804834L696.9692496299743,269.3608740585079L704.1544996261597,267.92080549668714L711.3397496223449,269.4333802104257L718.5249996185303,268.8947137100892L725.7102496147156,270.6528070927191L732.8954996109009,269.13916357084474L740.0807496070861,269.3958119244554L747.2659996032716,270.14007358978495L754.4512495994568,269.21202812549075L761.636499595642,270.9119130650372L768.8217495918275,270.2369191269745L776.0069995880127,270.13599035870334L783.192249584198,269.9298767897642" fill="none"></path></g><g><path style="fill: none;" stroke="rgb(238, 51, 119)" stroke-width="2px" d="M71.85249996185303,19.65318768032256L79.03774995803832,53.57946192756731L86.22299995422364,72.98522884451972L93.40824995040894,98.99774045209938L100.59349994659424,117.8638552612129L107.77874994277954,126.58822247121057L114.96399993896485,136.46328004027836L122.14924993515014,147.36116779514296L129.33449993133544,143.06230627215263L136.51974992752073,150.65464566513972L143.70499992370605,160.83895358822528L150.89024991989135,166.0258218707347L158.07549991607664,172.49675752758182L165.26074991226199,179.57558261169123L172.44599990844728,179.20370138092645L179.63124990463257,183.70918207670462L186.8164999008179,186.15912072566977L194.00174989700318,189.73837357098938L201.18699989318847,190.5043570016653L208.3722498893738,192.62800836692736L215.55749988555908,196.47282483372075L222.7427498817444,197.13874990275113L229.9279998779297,199.44637706843938L237.113249874115,199.37016528831433L244.29849987030028,203.3192769490041L251.48374986648562,206.4158509201658L258.6689998626709,200.7602686697995L265.85424985885624,202.9826343864765L273.03949985504147,207.00543620809674L280.2247498512268,211.3560101247225L287.4099998474121,210.09683893989492L294.5952498435974,212.89776906061175L301.7804998397827,215.83343300692422L308.96574983596804,215.22643958648234L316.1509998321533,215.65946688269182L323.3362498283386,217.5982336406098L330.52149982452397,220.20255426473258L337.7067498207092,219.67800627186637L344.89199981689455,219.20518347273304L352.07724981307985,223.22579647769197L359.26249980926514,221.2239508396167L366.4477498054504,222.1295321329134L373.6329998016358,223.99585033935207L380.818249797821,223.77973349426782L388.00349979400636,228.72766235796723L395.18874979019165,226.7256375185279L402.37399978637694,228.19767432369136L409.55924978256223,227.69333768467425L416.7444997787476,228.488774139547L423.9297497749328,230.09784878784433L431.11499977111816,231.50313308488683L438.30024976730346,234.66750917215913L445.4854997634888,234.1014376632154L452.6707497596741,232.52907369436022L459.8559997558594,234.2956535415892L467.0412497520446,235.4227533210875L474.22649974823,236.14457641561438L481.4117497444153,238.77931647129026L488.59699974060055,237.8463045691914L495.78224973678584,239.4764609779634L502.96749973297125,238.28659592069496L510.1527497291565,241.9820608506225L517.3379997253418,241.85110945381874L524.523249721527,241.79573623231707L531.7084997177125,243.20457895644637L538.8937497138977,243.02344477765064L546.0789997100829,244.27094867366665L553.2642497062684,244.20292895589967L560.4494997024536,246.32213868735195L567.6347496986389,246.41692340885447L574.8199996948242,245.9396013754729L582.0052496910096,246.15774703600056L589.1904996871948,247.10073021400086L596.3757496833801,247.66918894111615L603.5609996795654,250.52989551685215L610.7462496757507,249.6996299968601L617.9314996719361,250.23034763668977L625.1167496681213,252.61698340379252L632.3019996643065,252.80714805132834L639.487249660492,252.81068727826897L646.6724996566772,255.08413178375838L653.8577496528625,255.1292457271663L661.0429996490479,255.865219329407L668.2282496452332,254.8910807142511L675.4134996414184,257.0147448796106L682.5987496376038,256.4633550824242L689.7839996337891,255.2454962120665L696.9692496299743,255.8454495789194L704.1544996261597,255.27468683426594L711.3397496223449,257.8406583664749L718.5249996185303,258.74077401816703L725.7102496147156,259.5425529213186L732.8954996109009,257.5564706032339L740.0807496070861,258.66878627019537L747.2659996032716,259.25363552207557L754.4512495994568,258.71313860780594L761.636499595642,259.89760842400574L768.8217495918275,259.3654315730686L776.0069995880127,260.5011458181403L783.192249584198,258.81463058036417" fill="none"></path></g><g><path style="fill: none;" stroke="rgb(51, 187, 238)" stroke-width="2px" d="M71.85249996185303,10.80701474313804L79.03774995803832,39.45609042027803L86.22299995422364,46.33074115020963L93.40824995040894,57.222728060156896L100.59349994659424,72.92304597118289L107.77874994277954,82.13438008797903L114.96399993896485,95.95927892329036L122.14924993515014,105.93923329083395L129.33449993133544,114.57059499287254L136.51974992752073,114.99893745342092L143.70499992370605,122.27479443733978L150.89024991989135,126.44905981190257L158.07549991607664,137.02347630449967L165.26074991226199,140.81812918944723L172.44599990844728,142.96261911333266L179.63124990463257,138.16253137500183L186.8164999008179,141.1480389007243L194.00174989700318,144.33358634915325L201.18699989318847,151.1027002757373L208.3722498893738,156.45457461427497L215.55749988555908,163.27948416557604L222.7427498817444,165.6128139269128L229.9279998779297,166.28699505878842L237.113249874115,169.86198547166236L244.29849987030028,165.4808833226553L251.48374986648562,176.4605893003213L258.6689998626709,172.44064190042891L265.85424985885624,174.41747614811715L273.03949985504147,177.26571542895195L280.2247498512268,182.1128435253546L287.4099998474121,187.48655483011558L294.5952498435974,182.3459588998319L301.7804998397827,189.7282486939187L308.96574983596804,187.72508464580767L316.1509998321533,187.88672427621066L323.3362498283386,187.8867882766978L330.52149982452397,196.45629990793282L337.7067498207092,195.06780933872437L344.89199981689455,195.33292495678796L352.07724981307985,196.19493471841756L359.26249980926514,196.7241419467499L366.4477498054504,197.57301880841172L373.6329998016358,199.88773722807872L380.818249797821,199.8091702300257L388.00349979400636,202.04146882231188L395.18874979019165,198.14317354843712L402.37399978637694,205.5567723808487L409.55924978256223,207.42997703970713L416.7444997787476,207.20086809572683L423.9297497749328,206.72009643608666L431.11499977111816,209.54311952497545L438.30024976730346,210.1199815160565L445.4854997634888,210.2664530309996L452.6707497596741,209.37378703601433L459.8559997558594,214.0408689619032L467.0412497520446,212.07065236458863L474.22649974823,213.30058812687577L481.4117497444153,214.1570810465111L488.59699974060055,217.34502211316033L495.78224973678584,221.54441407898707L502.96749973297125,220.4387928629839L510.1527497291565,218.01089598180096L517.3379997253418,220.41280866519182L524.523249721527,222.33196567384016L531.7084997177125,222.44134250641804L538.8937497138977,224.5245583638845L546.0789997100829,227.83801718597653L553.2642497062684,224.5795603825606L560.4494997024536,227.85001087727267L567.6347496986389,228.1600036369416L574.8199996948242,227.81621862004556L582.0052496910096,230.61666233705986L589.1904996871948,230.7532009763938L596.3757496833801,230.08161826429736L603.5609996795654,231.61474993451577L610.7462496757507,232.84057686552646L617.9314996719361,232.6020726500292L625.1167496681213,231.25957283090298L632.3019996643065,235.9898360377286L639.487249660492,237.12200465581097L646.6724996566772,236.0613501820952L653.8577496528625,238.66426919554888L661.0429996490479,235.4396238495062L668.2282496452332,239.4223805663026L675.4134996414184,238.30917529256942L682.5987496376038,239.21120455882803L689.7839996337891,239.016156674121L696.9692496299743,239.43891189213926L704.1544996261597,239.2121133657459L711.3397496223449,237.8768136014266L718.5249996185303,242.7609083792201L725.7102496147156,239.82713884732792L732.8954996109009,240.7301217208454L740.0807496070861,243.89544501532785L747.2659996032716,244.4647741490687L754.4512495994568,240.9665331204121L761.636499595642,245.92606527243592L768.8217495918275,245.07732281179716L776.0069995880127,243.8372557723906L783.192249584198,243.49184514312034" fill="none"></path></g><g><path style="fill: none;" stroke="rgb(204, 51, 17)" stroke-width="2px" d="M71.85249996185303,9.350670857429293L79.03774995803832,40.56276124427086" fill="none"></path></g><g><path style="fill: none;" stroke="rgb(187, 187, 187)" stroke-width="2px" d="M71.85249996185303,-24.090351696073185L79.03774995803832,23.560929426103996L86.22299995422364,29.969733410003982L93.40824995040894,41.214670206610435L100.59349994659424,37.684352133782966L107.77874994277954,36.74421057741313L114.96399993896485,54.10144990094659L122.14924993515014,50.45416453776255L129.33449993133544,54.6217226612697L136.51974992752073,56.2555270978105L143.70499992370605,63.509214312972745L150.89024991989135,67.48502697691094L158.07549991607664,68.20495565701748L165.26074991226199,66.99250482782588L172.44599990844728,68.58447854595067L179.63124990463257,77.74855470301867L186.8164999008179,90.38911172310458L194.00174989700318,93.77663190895265L201.18699989318847,100.06444937190167L208.3722498893738,95.9363923490775L215.55749988555908,104.42201214172667L222.7427498817444,100.04624763334982L229.9279998779297,107.4693313379604L237.113249874115,108.98688528960099L244.29849987030028,122.82089779428568L251.48374986648562,114.2422468934825L258.6689998626709,114.99079659145258L265.85424985885624,119.50283093711727L273.03949985504147,119.55825535900868L280.2247498512268,122.60603535875L287.4099998474121,129.42099923434446L294.5952498435974,121.16474438762424L301.7804998397827,124.34180537145411L308.96574983596804,128.88523835612563L316.1509998321533,137.33366106563014L323.3362498283386,132.2698145195638L330.52149982452397,130.55734068419048L337.7067498207092,136.81503951787613L344.89199981689455,141.34388039147228L352.07724981307985,137.6474682543346L359.26249980926514,138.93375004552846L366.4477498054504,136.47528653167194L373.6329998016358,134.77374397950769L380.818249797821,137.7872709185143L388.00349979400636,145.63817227967849L395.18874979019165,146.53713592260152L402.37399978637694,142.81832361495344L409.55924978256223,144.82671010281774L416.7444997787476,145.99182617169654L423.9297497749328,153.33488366714656L431.11499977111816,151.9812861635446L438.30024976730346,159.3422509953055L445.4854997634888,147.9575115345193L452.6707497596741,160.22977135112208L459.8559997558594,164.07424221528473L467.0412497520446,158.37775085351777L474.22649974823,163.02871745673656L481.4117497444153,169.9959384913145L488.59699974060055,160.47754283716188L495.78224973678584,165.02389424404845L502.96749973297125,170.3525364057425L510.1527497291565,159.00372681845502L517.3379997253418,172.78939335512956L524.523249721527,168.22531381329622L531.7084997177125,177.00568144956986L538.8937497138977,173.84152296395396L546.0789997100829,174.70748795569085L553.2642497062684,172.79252937900102L560.4494997024536,180.72046172652608L567.6347496986389,182.0439662010595L574.8199996948242,182.37527112295692L582.0052496910096,187.860074473352L589.1904996871948,182.71415370253558L596.3757496833801,184.97742853061325L603.5609996795654,187.95663840839794L610.7462496757507,185.8140300988354L617.9314996719361,192.83520354409976L625.1167496681213,181.19780296005382L632.3019996643065,189.1969934499968L639.487249660492,191.54743694160348L646.6724996566772,188.87219097759612L653.8577496528625,190.009735636601L661.0429996490479,193.91685017760813L668.2282496452332,193.8020333036206L675.4134996414184,200.60796031042628L682.5987496376038,194.56947594540404L689.7839996337891,198.11306771927113L696.9692496299743,199.66609074090275L704.1544996261597,199.21821533166926L711.3397496223449,192.85487729385662L718.5249996185303,198.50179387825978L725.7102496147156,198.12146458318816L732.8954996109009,203.52503851526384L740.0807496070861,202.2564592588219L747.2659996032716,205.19484962588794L754.4512495994568,201.39930073411995L761.636499595642,203.45828600714287L768.8217495918275,199.45968916977128L776.0069995880127,208.9319788729648L783.192249584198,203.05403332996622" fill="none"></path></g><g><path style="fill: none;" stroke="rgb(0, 153, 136)" stroke-width="2px" d="M71.85249996185303,-26.003531059219654L79.03774995803832,23.51694829131901L86.22299995422364,32.63084806644372L93.40824995040894,41.48336985195567L100.59349994659424,37.78744411852051L107.77874994277954,38.22413224259623L114.96399993896485,52.75820767616915L122.14924993515014,49.48622116976492L129.33449993133544,56.18904339173565L136.51974992752073,54.72391863918682L143.70499992370605,64.67975762316377L150.89024991989135,65.58631172386549L158.07549991607664,68.22059737608242L165.26074991226199,70.16216735533862L172.44599990844728,68.15941291034551L179.63124990463257,77.73693221454812L186.8164999008179,90.53070640092511L194.00174989700318,94.39410860919338L201.18699989318847,99.95836216436447L208.3722498893738,98.7253031783033L215.55749988555908,107.53747905670173L222.7427498817444,107.00263978549816L229.9279998779297,114.8887542147047L237.113249874115,109.9255164344736L244.29849987030028,121.30546865881922L251.48374986648562,115.46096977041702L258.6689998626709,112.53635230819049L265.85424985885624,116.50755693705224L273.03949985504147,121.76942099043049L280.2247498512268,123.88612190278559L287.4099998474121,132.15399923797634L294.5952498435974,120.7524276490638L301.7804998397827,131.35616916488337L308.96574983596804,130.0551672616398L316.1509998321533,129.47414523889253L323.3362498283386,132.79111128768164L330.52149982452397,131.98270833410774L337.7067498207092,136.11035575381408L344.89199981689455,139.13478837583486L352.07724981307985,137.78696371617588L359.26249980926514,136.86887672768566L366.4477498054504,133.3907574521961L373.6329998016358,135.46228682070483L380.818249797821,135.78546368073134L388.00349979400636,141.81605038563646L395.18874979019165,145.90891994061323L402.37399978637694,143.19994571986592L409.55924978256223,142.97850403424889L416.7444997787476,146.38699077969474L423.9297497749328,149.99440383937028L431.11499977111816,150.10403667389684L438.30024976730346,154.0113688165604L445.4854997634888,150.55887533613472L452.6707497596741,161.1200821281794L459.8559997558594,158.86407775544453L467.0412497520446,159.9612765073358L474.22649974823,154.40552221686124L481.4117497444153,166.40423115119108L488.59699974060055,158.25622672847453L495.78224973678584,164.30098314123964L502.96749973297125,166.6623195157631L510.1527497291565,161.63889567739494L517.3379997253418,173.8433149775948L524.523249721527,162.4480666368149L531.7084997177125,177.09396372157568L538.8937497138977,172.88882451200084L546.0789997100829,169.98334319543895L553.2642497062684,169.781140056266L560.4494997024536,177.52581340882116L567.6347496986389,175.82849488881033L574.8199996948242,177.97504562838273L582.0052496910096,184.15247505105654L589.1904996871948,175.3648113592452L596.3757496833801,182.49572003981567L603.5609996795654,180.38131034490132L610.7462496757507,179.37578589083597L617.9314996719361,188.66119417148565L625.1167496681213,177.55591923798715L632.3019996643065,184.26578151354684L639.487249660492,188.66507260100832L646.6724996566772,187.35980826531906L653.8577496528625,184.14172296921157L661.0429996490479,185.85412000400026L668.2282496452332,189.4351648629607L675.4134996414184,196.83523399238402L682.5987496376038,191.47059795670413L689.7839996337891,194.92036501637625L696.9692496299743,198.73894128342891L704.1544996261597,193.69392368068873L711.3397496223449,188.17316485660012L718.5249996185303,194.64333250760117L725.7102496147156,195.94011037869134L732.8954996109009,197.67813320854393L740.0807496070861,199.2293258162424L747.2659996032716,202.31125647593902L754.4512495994568,199.12830744728925L761.636499595642,199.6731563946866L768.8217495918275,196.85358933210512L776.0069995880127,203.9456369168644L783.192249584198,200.40131553744354" fill="none"></path></g></g></g></g></g></g><g transform="translate(61, 377)" clip-path="url(#clip_1)"><clipPath id="clip_1"><rect width="862" height="22"></rect></clipPath><g><g><line x1="0" y1="0" x2="0" y2="5" style="visibility: inherit;" fill="rgb(0, 0, 0)" stroke="rgb(204, 204, 204)" stroke-width="1px"></line><line x1="71.85249996185303" y1="0" x2="71.85249996185303" y2="5" style="visibility: inherit;" fill="rgb(0, 0, 0)" stroke="rgb(204, 204, 204)" stroke-width="1px"></line><line x1="143.70499992370605" y1="0" x2="143.70499992370605" y2="5" style="visibility: inherit;" fill="rgb(0, 0, 0)" stroke="rgb(204, 204, 204)" stroke-width="1px"></line><line x1="215.55749988555908" y1="0" x2="215.55749988555908" y2="5" style="visibility: inherit;" fill="rgb(0, 0, 0)" stroke="rgb(204, 204, 204)" stroke-width="1px"></line><line x1="287.4099998474121" y1="0" x2="287.4099998474121" y2="5" style="visibility: inherit;" fill="rgb(0, 0, 0)" stroke="rgb(204, 204, 204)" stroke-width="1px"></line><line x1="359.26249980926514" y1="0" x2="359.26249980926514" y2="5" style="visibility: inherit;" fill="rgb(0, 0, 0)" stroke="rgb(204, 204, 204)" stroke-width="1px"></line><line x1="431.11499977111816" y1="0" x2="431.11499977111816" y2="5" style="visibility: inherit;" fill="rgb(0, 0, 0)" stroke="rgb(204, 204, 204)" stroke-width="1px"></line><line x1="502.96749973297125" y1="0" x2="502.96749973297125" y2="5" style="visibility: inherit;" fill="rgb(0, 0, 0)" stroke="rgb(204, 204, 204)" stroke-width="1px"></line><line x1="574.8199996948242" y1="0" x2="574.8199996948242" y2="5" style="visibility: inherit;" fill="rgb(0, 0, 0)" stroke="rgb(204, 204, 204)" stroke-width="1px"></line><line x1="646.6724996566772" y1="0" x2="646.6724996566772" y2="5" style="visibility: inherit;" fill="rgb(0, 0, 0)" stroke="rgb(204, 204, 204)" stroke-width="1px"></line><line x1="718.5249996185303" y1="0" x2="718.5249996185303" y2="5" style="visibility: inherit;" fill="rgb(0, 0, 0)" stroke="rgb(204, 204, 204)" stroke-width="1px"></line><line x1="790.3774995803833" y1="0" x2="790.3774995803833" y2="5" style="visibility: inherit;" fill="rgb(0, 0, 0)" stroke="rgb(204, 204, 204)" stroke-width="1px"></line><line x1="862.2299995422363" y1="0" x2="862.2299995422363" y2="5" style="visibility: inherit;" fill="rgb(0, 0, 0)" stroke="rgb(204, 204, 204)" stroke-width="1px"></line></g><g transform="translate(0, 8)"><text style="text-anchor: middle; visibility: hidden; font-family: &quot;Helvetica Neue&quot;, sans-serif; font-size: 12px; font-weight: 200;" x="0" y="0" dx="0em" dy="0.95em" fill="rgb(50, 49, 63)" stroke="none" stroke-width="1px">-10</text><text style="text-anchor: middle; visibility: inherit; font-family: &quot;Helvetica Neue&quot;, sans-serif; font-size: 12px; font-weight: 200;" x="71.85249996185303" y="0" dx="0em" dy="0.95em" fill="rgb(50, 49, 63)" stroke="none" stroke-width="1px">0</text><text style="text-anchor: middle; visibility: inherit; font-family: &quot;Helvetica Neue&quot;, sans-serif; font-size: 12px; font-weight: 200;" x="143.70499992370605" y="0" dx="0em" dy="0.95em" fill="rgb(50, 49, 63)" stroke="none" stroke-width="1px">10</text><text style="text-anchor: middle; visibility: inherit; font-family: &quot;Helvetica Neue&quot;, sans-serif; font-size: 12px; font-weight: 200;" x="215.55749988555908" y="0" dx="0em" dy="0.95em" fill="rgb(50, 49, 63)" stroke="none" stroke-width="1px">20</text><text style="text-anchor: middle; visibility: inherit; font-family: &quot;Helvetica Neue&quot;, sans-serif; font-size: 12px; font-weight: 200;" x="287.4099998474121" y="0" dx="0em" dy="0.95em" fill="rgb(50, 49, 63)" stroke="none" stroke-width="1px">30</text><text style="text-anchor: middle; visibility: inherit; font-family: &quot;Helvetica Neue&quot;, sans-serif; font-size: 12px; font-weight: 200;" x="359.26249980926514" y="0" dx="0em" dy="0.95em" fill="rgb(50, 49, 63)" stroke="none" stroke-width="1px">40</text><text style="text-anchor: middle; visibility: inherit; font-family: &quot;Helvetica Neue&quot;, sans-serif; font-size: 12px; font-weight: 200;" x="431.11499977111816" y="0" dx="0em" dy="0.95em" fill="rgb(50, 49, 63)" stroke="none" stroke-width="1px">50</text><text style="text-anchor: middle; visibility: inherit; font-family: &quot;Helvetica Neue&quot;, sans-serif; font-size: 12px; font-weight: 200;" x="502.96749973297125" y="0" dx="0em" dy="0.95em" fill="rgb(50, 49, 63)" stroke="none" stroke-width="1px">60</text><text style="text-anchor: middle; visibility: inherit; font-family: &quot;Helvetica Neue&quot;, sans-serif; font-size: 12px; font-weight: 200;" x="574.8199996948242" y="0" dx="0em" dy="0.95em" fill="rgb(50, 49, 63)" stroke="none" stroke-width="1px">70</text><text style="text-anchor: middle; visibility: inherit; font-family: &quot;Helvetica Neue&quot;, sans-serif; font-size: 12px; font-weight: 200;" x="646.6724996566772" y="0" dx="0em" dy="0.95em" fill="rgb(50, 49, 63)" stroke="none" stroke-width="1px">80</text><text style="text-anchor: middle; visibility: inherit; font-family: &quot;Helvetica Neue&quot;, sans-serif; font-size: 12px; font-weight: 200;" x="718.5249996185303" y="0" dx="0em" dy="0.95em" fill="rgb(50, 49, 63)" stroke="none" stroke-width="1px">90</text><text style="text-anchor: middle; visibility: inherit; font-family: &quot;Helvetica Neue&quot;, sans-serif; font-size: 12px; font-weight: 200;" x="790.3774995803833" y="0" dx="0em" dy="0.95em" fill="rgb(50, 49, 63)" stroke="none" stroke-width="1px">100</text><text style="text-anchor: middle; visibility: hidden; font-family: &quot;Helvetica Neue&quot;, sans-serif; font-size: 12px; font-weight: 200;" x="862.2299995422363" y="0" dx="0em" dy="0.95em" fill="rgb(50, 49, 63)" stroke="none" stroke-width="1px">110</text></g><line x1="0" y1="0" x2="862.2299995422363" y2="0" fill="rgb(0, 0, 0)" stroke="rgb(204, 204, 204)" stroke-width="1px"></line></g></g></g></g></svg>