<svg viewBox="0 0 924 400" xmlns="http://www.w3.org/2000/svg"><g><g><g><g><g><line x1="51.41600036621094" y1="377.95999908447266" x2="46.41600036621094" y2="377.95999908447266" style="visibility: inherit;" fill="rgb(0, 0, 0)" stroke="rgb(204, 204, 204)" stroke-width="1px"></line><line x1="51.41600036621094" y1="348.8861530010517" x2="46.41600036621094" y2="348.8861530010517" style="visibility: inherit;" fill="rgb(0, 0, 0)" stroke="rgb(204, 204, 204)" stroke-width="1px"></line><line x1="51.41600036621094" y1="319.81230691763074" x2="46.41600036621094" y2="319.81230691763074" style="visibility: inherit;" fill="rgb(0, 0, 0)" stroke="rgb(204, 204, 204)" stroke-width="1px"></line><line x1="51.41600036621094" y1="290.7384608342097" x2="46.41600036621094" y2="290.7384608342097" style="visibility: inherit;" fill="rgb(0, 0, 0)" stroke="rgb(204, 204, 204)" stroke-width="1px"></line><line x1="51.41600036621094" y1="261.66461475078876" x2="46.41600036621094" y2="261.66461475078876" style="visibility: inherit;" fill="rgb(0, 0, 0)" stroke="rgb(204, 204, 204)" stroke-width="1px"></line><line x1="51.41600036621094" y1="232.5907686673678" x2="46.41600036621094" y2="232.5907686673678" style="visibility: inherit;" fill="rgb(0, 0, 0)" stroke="rgb(204, 204, 204)" stroke-width="1px"></line><line x1="51.41600036621094" y1="203.51692258394684" x2="46.41600036621094" y2="203.51692258394684" style="visibility: inherit;" fill="rgb(0, 0, 0)" stroke="rgb(204, 204, 204)" stroke-width="1px"></line><line x1="51.41600036621094" y1="174.44307650052585" x2="46.41600036621094" y2="174.44307650052585" style="visibility: inherit;" fill="rgb(0, 0, 0)" stroke="rgb(204, 204, 204)" stroke-width="1px"></line><line x1="51.41600036621094" y1="145.3692304171049" x2="46.41600036621094" y2="145.3692304171049" style="visibility: inherit;" fill="rgb(0, 0, 0)" stroke="rgb(204, 204, 204)" stroke-width="1px"></line><line x1="51.41600036621094" y1="116.2953843336839" x2="46.41600036621094" y2="116.2953843336839" style="visibility: inherit;" fill="rgb(0, 0, 0)" stroke="rgb(204, 204, 204)" stroke-width="1px"></line><line x1="51.41600036621094" y1="87.22153825026294" x2="46.41600036621094" y2="87.22153825026294" style="visibility: inherit;" fill="rgb(0, 0, 0)" stroke="rgb(204, 204, 204)" stroke-width="1px"></line><line x1="51.41600036621094" y1="58.14769216684198" x2="46.41600036621094" y2="58.14769216684198" style="visibility: inherit;" fill="rgb(0, 0, 0)" stroke="rgb(204, 204, 204)" stroke-width="1px"></line><line x1="51.41600036621094" y1="29.07384608342096" x2="46.41600036621094" y2="29.07384608342096" style="visibility: inherit;" fill="rgb(0, 0, 0)" stroke="rgb(204, 204, 204)" stroke-width="1px"></line><line x1="51.41600036621094" y1="0" x2="46.41600036621094" y2="0" style="visibility: inherit;" fill="rgb(0, 0, 0)" stroke="rgb(204, 204, 204)" stroke-width="1px"></line></g><g transform="translate(41.41600036621094, 0)"><text style="text-anchor: end; visibility: hidden; font-family: &quot;Helvetica Neue&quot;, sans-serif; font-size: 12px; font-weight: 200;" x="0" y="377.95999908447266" dx="0em" dy="0.3em" fill="rgb(50, 49, 63)" stroke="none" stroke-width="1px">-0.1</text><text style="text-anchor: end; visibility: inherit; font-family: &quot;Helvetica Neue&quot;, sans-serif; font-size: 12px; font-weight: 200;" x="0" y="348.8861530010517" dx="0em" dy="0.3em" fill="rgb(50, 49, 63)" stroke="none" stroke-width="1px">0</text><text style="text-anchor: end; visibility: inherit; font-family: &quot;Helvetica Neue&quot;, sans-serif; font-size: 12px; font-weight: 200;" x="0" y="319.81230691763074" dx="0em" dy="0.3em" fill="rgb(50, 49, 63)" stroke="none" stroke-width="1px">0.1</text><text style="text-anchor: end; visibility: inherit; font-family: &quot;Helvetica Neue&quot;, sans-serif; font-size: 12px; font-weight: 200;" x="0" y="290.7384608342097" dx="0em" dy="0.3em" fill="rgb(50, 49, 63)" stroke="none" stroke-width="1px">0.2</text><text style="text-anchor: end; visibility: inherit; font-family: &quot;Helvetica Neue&quot;, sans-serif; font-size: 12px; font-weight: 200;" x="0" y="261.66461475078876" dx="0em" dy="0.3em" fill="rgb(50, 49, 63)" stroke="none" stroke-width="1px">0.3</text><text style="text-anchor: end; visibility: inherit; font-family: &quot;Helvetica Neue&quot;, sans-serif; font-size: 12px; font-weight: 200;" x="0" y="232.5907686673678" dx="0em" dy="0.3em" fill="rgb(50, 49, 63)" stroke="none" stroke-width="1px">0.4</text><text style="text-anchor: end; visibility: inherit; font-family: &quot;Helvetica Neue&quot;, sans-serif; font-size: 12px; font-weight: 200;" x="0" y="203.51692258394684" dx="0em" dy="0.3em" fill="rgb(50, 49, 63)" stroke="none" stroke-width="1px">0.5</text><text style="text-anchor: end; visibility: inherit; font-family: &quot;Helvetica Neue&quot;, sans-serif; font-size: 12px; font-weight: 200;" x="0" y="174.44307650052585" dx="0em" dy="0.3em" fill="rgb(50, 49, 63)" stroke="none" stroke-width="1px">0.6</text><text style="text-anchor: end; visibility: inherit; font-family: &quot;Helvetica Neue&quot;, sans-serif; font-size: 12px; font-weight: 200;" x="0" y="145.3692304171049" dx="0em" dy="0.3em" fill="rgb(50, 49, 63)" stroke="none" stroke-width="1px">0.7</text><text style="text-anchor: end; visibility: inherit; font-family: &quot;Helvetica Neue&quot;, sans-serif; font-size: 12px; font-weight: 200;" x="0" y="116.2953843336839" dx="0em" dy="0.3em" fill="rgb(50, 49, 63)" stroke="none" stroke-width="1px">0.8</text><text style="text-anchor: end; visibility: inherit; font-family: &quot;Helvetica Neue&quot;, sans-serif; font-size: 12px; font-weight: 200;" x="0" y="87.22153825026294" dx="0em" dy="0.3em" fill="rgb(50, 49, 63)" stroke="none" stroke-width="1px">0.9</text><text style="text-anchor: end; visibility: inherit; font-family: &quot;Helvetica Neue&quot;, sans-serif; font-size: 12px; font-weight: 200;" x="0" y="58.14769216684198" dx="0em" dy="0.3em" fill="rgb(50, 49, 63)" stroke="none" stroke-width="1px">1</text><text style="text-anchor: end; visibility: inherit; font-family: &quot;Helvetica Neue&quot;, sans-serif; font-size: 12px; font-weight: 200;" x="0" y="29.07384608342096" dx="0em" dy="0.3em" fill="rgb(50, 49, 63)" stroke="none" stroke-width="1px">1.1</text><text style="text-anchor: end; visibility: hidden; font-family: &quot;Helvetica Neue&quot;, sans-serif; font-size: 12px; font-weight: 200;" x="0" y="0" dx="0em" dy="0.3em" fill="rgb(50, 49, 63)" stroke="none" stroke-width="1px">1.2</text></g><line x1="51.41600036621094" y1="0" x2="51.41600036621094" y2="377.95999908447266" fill="rgb(0, 0, 0)" stroke="rgb(204, 204, 204)" stroke-width="1px"></line></g></g><g transform="translate(51, 0)" clip-path="url(#clip_0)"><clipPath id="clip_0"><rect width="872" height="377"></rect></clipPath><g><g><g><line x1="0" y1="0" x2="0" y2="377.95999908447266" fill="rgb(0, 0, 0)" stroke="rgb(60, 60, 60)" stroke-width="1px" opacity="0.25"></line><line x1="72.71533330281575" y1="0" x2="72.71533330281575" y2="377.95999908447266" fill="rgb(0, 0, 0)" stroke="rgb(60, 60, 60)" stroke-width="1px" opacity="0.25"></line><line x1="145.4306666056315" y1="0" x2="145.4306666056315" y2="377.95999908447266" fill="rgb(0, 0, 0)" stroke="rgb(60, 60, 60)" stroke-width="1px" opacity="0.25"></line><line x1="218.14599990844727" y1="0" x2="218.14599990844727" y2="377.95999908447266" fill="rgb(0, 0, 0)" stroke="rgb(60, 60, 60)" stroke-width="1px" opacity="0.25"></line><line x1="290.861333211263" y1="0" x2="290.861333211263" y2="377.95999908447266" fill="rgb(0, 0, 0)" stroke="rgb(60, 60, 60)" stroke-width="1px" opacity="0.25"></line><line x1="363.5766665140788" y1="0" x2="363.5766665140788" y2="377.95999908447266" fill="rgb(0, 0, 0)" stroke="rgb(60, 60, 60)" stroke-width="1px" opacity="0.25"></line><line x1="436.29199981689453" y1="0" x2="436.29199981689453" y2="377.95999908447266" fill="rgb(0, 0, 0)" stroke="rgb(60, 60, 60)" stroke-width="1px" opacity="0.25"></line><line x1="509.0073331197103" y1="0" x2="509.0073331197103" y2="377.95999908447266" fill="rgb(0, 0, 0)" stroke="rgb(60, 60, 60)" stroke-width="1px" opacity="0.25"></line><line x1="581.722666422526" y1="0" x2="581.722666422526" y2="377.95999908447266" fill="rgb(0, 0, 0)" stroke="rgb(60, 60, 60)" stroke-width="1px" opacity="0.25"></line><line x1="654.4379997253418" y1="0" x2="654.4379997253418" y2="377.95999908447266" fill="rgb(0, 0, 0)" stroke="rgb(60, 60, 60)" stroke-width="1px" opacity="0.25"></line><line x1="727.1533330281576" y1="0" x2="727.1533330281576" y2="377.95999908447266" fill="rgb(0, 0, 0)" stroke="rgb(60, 60, 60)" stroke-width="1px" opacity="0.25"></line><line x1="799.8686663309733" y1="0" x2="799.8686663309733" y2="377.95999908447266" fill="rgb(0, 0, 0)" stroke="rgb(60, 60, 60)" stroke-width="1px" opacity="0.25"></line><line x1="872.5839996337891" y1="0" x2="872.5839996337891" y2="377.95999908447266" fill="rgb(0, 0, 0)" stroke="rgb(60, 60, 60)" stroke-width="1px" opacity="0.25"></line></g><g><line x1="0" y1="377.95999908447266" x2="872.5839996337891" y2="377.95999908447266" fill="rgb(0, 0, 0)" stroke="rgb(60, 60, 60)" stroke-width="1px" opacity="0.25"></line><line x1="0" y1="348.8861530010517" x2="872.5839996337891" y2="348.8861530010517" fill="rgb(0, 0, 0)" stroke="rgb(60, 60, 60)" stroke-width="1px" opacity="0.25"></line><line x1="0" y1="319.81230691763074" x2="872.5839996337891" y2="319.81230691763074" fill="rgb(0, 0, 0)" stroke="rgb(60, 60, 60)" stroke-width="1px" opacity="0.25"></line><line x1="0" y1="290.7384608342097" x2="872.5839996337891" y2="290.7384608342097" fill="rgb(0, 0, 0)" stroke="rgb(60, 60, 60)" stroke-width="1px" opacity="0.25"></line><line x1="0" y1="261.66461475078876" x2="872.5839996337891" y2="261.66461475078876" fill="rgb(0, 0, 0)" stroke="rgb(60, 60, 60)" stroke-width="1px" opacity="0.25"></line><line x1="0" y1="232.5907686673678" x2="872.5839996337891" y2="232.5907686673678" fill="rgb(0, 0, 0)" stroke="rgb(60, 60, 60)" stroke-width="1px" opacity="0.25"></line><line x1="0" y1="203.51692258394684" x2="872.5839996337891" y2="203.51692258394684" fill="rgb(0, 0, 0)" stroke="rgb(60, 60, 60)" stroke-width="1px" opacity="0.25"></line><line x1="0" y1="174.44307650052585" x2="872.5839996337891" y2="174.44307650052585" fill="rgb(0, 0, 0)" stroke="rgb(60, 60, 60)" stroke-width="1px" opacity="0.25"></line><line x1="0" y1="145.3692304171049" x2="872.5839996337891" y2="145.3692304171049" fill="rgb(0, 0, 0)" stroke="rgb(60, 60, 60)" stroke-width="1px" opacity="0.25"></line><line x1="0" y1="116.2953843336839" x2="872.5839996337891" y2="116.2953843336839" fill="rgb(0, 0, 0)" stroke="rgb(60, 60, 60)" stroke-width="1px" opacity="0.25"></line><line x1="0" y1="87.22153825026294" x2="872.5839996337891" y2="87.22153825026294" fill="rgb(0, 0, 0)" stroke="rgb(60, 60, 60)" stroke-width="1px" opacity="0.25"></line><line x1="0" y1="58.14769216684198" x2="872.5839996337891" y2="58.14769216684198" fill="rgb(0, 0, 0)" stroke="rgb(60, 60, 60)" stroke-width="1px" opacity="0.25"></line><line x1="0" y1="29.07384608342096" x2="872.5839996337891" y2="29.07384608342096" fill="rgb(0, 0, 0)" stroke="rgb(60, 60, 60)" stroke-width="1px" opacity="0.25"></line><line x1="0" y1="0" x2="872.5839996337891" y2="0" fill="rgb(0, 0, 0)" stroke="rgb(60, 60, 60)" stroke-width="1px" opacity="0.25"></line></g></g></g><g><g><line x1="0" y1="348.8861530010517" x2="872.5839996337891" y2="348.8861530010517" fill="rgb(0, 0, 0)" stroke="rgb(153, 153, 153)" stroke-width="1.5px"></line></g></g><g><g><line x1="72.71533330281575" y1="0" x2="72.71533330281575" y2="377.95999908447266" fill="rgb(0, 0, 0)" stroke="rgb(153, 153, 153)" stroke-width="1.5px"></line></g></g><g><g><g><g><g><path style="fill: none;" stroke="rgb(51, 187, 238)" stroke-width="2px" d="M72.71533330281575,347.0562486594881L79.98686663309732,200.4629170106625L87.2583999633789,231.05100973685646L94.52993329366049,209.47459284458026L101.80146662394206,84.79210716909392L109.07299995422363,96.14831580347237L116.3445332845052,74.4470321884013L123.61606661478677,69.82549911384626L130.88759994506836,76.84195011085563L138.15913327534992,64.7946811515016L145.4306666056315,63.79670048409042L152.7021999359131,62.62651793972253L159.97373326619464,64.66306464194275L167.24526659647626,66.30176383574252L174.5167999267578,61.93951268561409L181.7883332570394,61.46695829467768L189.05986658732098,61.661012497974696L196.33139991760254,63.23819245425847L203.60293324788412,69.53258089645664L210.87446657816568,65.61420404202835L218.14599990844727,61.62994095068842L225.41753323872885,62.639688255359715L232.6890665690104,63.909064071711214L239.96059989929202,61.243028270119396L247.23213322957355,66.20477139281934L254.50366655985516,61.31754452964583L261.7751998901367,61.927520766639134L269.04673322041833,62.254699134048224L276.31826655069983,61.654254046529275L283.58979988098145,60.287140624659344L290.861333211263,60.75628113114766L298.1328665415446,60.80768002085824L305.4043998718262,61.01374347249282L312.67593320210773,60.164258113891435L319.9474665323893,60.91129228032531L327.2189998626709,61.77776041435368L334.4905331929525,60.72505361959725L341.76206652323407,60.64793795566874L349.0335998535156,60.70741232838844L356.3051331837972,60.70493422952512L363.5766665140788,60.68289128019546L370.84819984436035,60.17207365646044L378.11973317464196,61.38206174690566L385.39126650492346,60.246000717655704L392.6627998352051,60.18248860343141L399.93433316548663,61.16398904693341L407.20586649576825,60.092150635777614L414.4773998260498,61.91194166958928L421.74893315633136,60.06558472278829L429.0204664866129,60.23731870695269L436.29199981689453,60.40792628254292L443.5635331471761,60.20735623887799L450.8350664774577,60.08894470368176L458.10659980773926,60.10559822121775L465.3781331380208,60.10989590316257L472.64966646830237,60.07255112658589L479.92119979858404,59.96263097910304L487.1927331288656,60.647851308855365L494.4642664591471,60.0685133850813L501.73579978942865,59.84286775361767L509.0073331197103,59.87723187981322L516.2788664499918,59.92861344016109L523.5503997802734,59.972803314996554L530.8219331105549,60.06017796163195L538.0934664408367,59.77046567633823L545.3649997711182,59.82631821225772L552.6365331013997,59.87284755105503L559.9080664316814,59.716987263106034L567.1795997619629,59.88665905311143L574.4511330922445,59.785074329077986L581.722666422526,60.12901019019915L588.9941997528076,60.05012693127725L596.2657330830892,59.796892954426085L603.5372664133707,59.81176154760601L610.8087997436523,59.817237626213114L618.080333073934,59.83860473039823L625.3518664042155,59.82297364526039L632.6233997344971,60.0652034768093L639.8949330647786,59.70073232091164L647.1664663950603,59.713764001647405L654.4379997253418,59.730244225556646L661.7095330556233,59.713694684196696L668.981066385905,59.71457848169342L676.2525997161865,59.71457848169342L683.5241330464681,59.73916884733717L690.7956663767496,59.79703158932756L698.0671997070312,59.7580405232963L705.3387330373129,59.797326188493116L712.6102663675944,59.78602744402542L719.881799697876,59.83430704845347L727.1533330281576,59.64449853901323L734.4248663584391,59.74379578717287L741.6963996887207,59.79918043029994L748.9679330190022,59.75752064241584L756.2394663492839,59.7667745220873L763.5109996795654,59.756515539380416L770.7825330098469,59.81066979775716L778.0540663401287,59.67307465807352L785.3255996704102,59.7010269200772L792.5971330006918,59.75734734878904" fill="none"></path></g><g><path style="fill: none;" stroke="rgb(238, 51, 119)" stroke-width="2px" d="M72.71533330281575,347.8558555768757L79.98686663309732,343.54094249170066L87.2583999633789,318.30203952976325L94.52993329366049,208.03866452350582L101.80146662394206,174.61849470719616L109.07299995422363,271.8163512308631L116.3445332845052,150.73951673087169L123.61606661478677,141.91537059520167L130.88759994506836,144.87487915378887L138.15913327534992,114.24055168796315L145.4306666056315,142.66831407430962L152.7021999359131,122.63532820449677L159.97373326619464,129.06360330276502L167.24526659647626,133.86251973371833L174.5167999267578,91.7542826021878L181.7883332570394,87.98343061225916L189.05986658732098,159.74926034085058L196.33139991760254,102.7408039425016L203.60293324788412,109.86506090474683L210.87446657816568,108.57709068223903L218.14599990844727,116.21956490608392L225.41753323872885,98.95237997881486L232.6890665690104,104.45233844764783L239.96059989929202,102.76920676793509L247.23213322957355,97.86572496256724L254.50366655985516,87.97821447409228L261.7751998901367,122.95704782266148L269.04673322041833,126.32930714157445L276.31826655069983,100.59730041381698L283.58979988098145,101.16194303803786L290.861333211263,96.95813425089796L298.1328665415446,113.97227582430531L305.4043998718262,114.02694996356252L312.67593320210773,100.62185612073534L319.9474665323893,108.76773100108795L327.2189998626709,118.4220229266079L334.4905331929525,129.78062301303615L341.76206652323407,115.75855187069277L349.0335998535156,115.18124148235239L356.3051331837972,96.95686920742224L363.5766665140788,101.58399966612308L370.84819984436035,124.235538883783L378.11973317464196,112.80855713221717L385.39126650492346,116.59727569506953L392.6627998352051,83.96487271217438L399.93433316548663,101.61758397099806L407.20586649576825,115.62882426166607L414.4773998260498,90.66133702728712L421.74893315633136,91.76762621145184L429.0204664866129,82.8604550991792L436.29199981689453,114.26458751400111L443.5635331471761,95.02984407734323L450.8350664774577,109.05824043706502L458.10659980773926,100.24771518046191L465.3781331380208,83.14912762271206L472.64966646830237,86.82508402260197L479.92119979858404,108.61474738734393L487.1927331288656,102.1945651014475L494.4642664591471,88.10357508372346L501.73579978942865,108.58904794248866L509.0073331197103,93.84766961400032L516.2788664499918,104.72425347746861L523.5503997802734,84.04983857739722L530.8219331105549,100.7927929542164L538.0934664408367,110.70401001083843L545.3649997711182,84.67757741113809L552.6365331013997,113.41972909523543L559.9080664316814,85.18636749943948L567.1795997619629,102.44483575728026L574.4511330922445,108.96213179163857L581.722666422526,102.63324058834337L588.9941997528076,108.76998381823643L596.2657330830892,102.47108974174131L603.5372664133707,109.05408139002168L610.8087997436523,92.009734737462L618.080333073934,105.6215678770684L625.3518664042155,97.15374809683618L632.6233997344971,97.85305719844774L639.8949330647786,97.94514543173227L647.1664663950603,95.60289144246417L654.4379997253418,90.7609635333377L661.7095330556233,107.48468231758147L668.981066385905,95.7107840545134L676.2525997161865,107.50499233064312L683.5241330464681,106.99424402435875L690.7956663767496,105.94756784781521L698.0671997070312,97.30267663971296L705.3387330373129,104.74482343097043L712.6102663675944,109.02692627870124L719.881799697876,88.39099989314337L727.1533330281576,88.79317974223397L734.4248663584391,108.14032142523803L741.6963996887207,103.75647788920969L748.9679330190022,91.57457711119037L756.2394663492839,97.59587212690548L763.5109996795654,99.29468687984411L770.7825330098469,94.77674873539354L778.0540663401287,106.87189872383397L785.3255996704102,99.79037596995909L792.5971330006918,94.46204750911443" fill="none"></path></g><g><path style="fill: none;" stroke="rgb(51, 187, 238)" stroke-width="2px" d="M72.71533330281575,347.5048537358143L79.98686663309732,348.62698077284466L87.2583999633789,348.23350117767285L94.52993329366049,346.47121749853096L101.80146662394206,342.46564091572174L109.07299995422363,270.4998222186578L116.3445332845052,206.72519414381358L123.61606661478677,340.6694920064896L130.88759994506836,312.7244931718687L138.15913327534992,252.35939337655233L145.4306666056315,255.45890585623584L152.7021999359131,263.2340883394885L159.97373326619464,204.19073152837396L167.24526659647626,115.62244705619963L174.5167999267578,186.67451499470386L181.7883332570394,173.40841996993754L189.05986658732098,179.82797839877745L196.33139991760254,228.54911765857497L203.60293324788412,180.65488359780608L210.87446657816568,191.66712171233786L218.14599990844727,174.84504146551922L225.41753323872885,132.3935789767374L232.6890665690104,103.15093796906262L239.96059989929202,128.81272611923845L247.23213322957355,151.7173953375734L254.50366655985516,140.0410093983089L261.7751998901367,121.7704370424724L269.04673322041833,140.0962727358972L276.31826655069983,149.3983280355719L283.58979988098145,114.50511906800739L290.861333211263,92.67287745915928L298.1328665415446,121.7536795487602L305.4043998718262,121.74260608600736L312.67593320210773,108.1415344806257L319.9474665323893,120.43219433882825L327.2189998626709,172.36621476896556L334.4905331929525,116.92542450678877L341.76206652323407,129.83117276397536L349.0335998535156,137.66186119589383L356.3051331837972,120.77838301709795L363.5766665140788,112.27356504754272L370.84819984436035,88.90422629829101L378.11973317464196,100.4496195850532L385.39126650492346,96.56669860666926L392.6627998352051,109.70531883955738L399.93433316548663,114.89055875274857L407.20586649576825,126.70400262145367L414.4773998260498,114.30307602851462L421.74893315633136,114.96101994140776L429.0204664866129,115.39411537352044L436.29199981689453,134.2639024321256L443.5635331471761,116.8706117326301L450.8350664774577,143.41711583573692L458.10659980773926,151.64710744254103L465.3781331380208,119.88377199807638L472.64966646830237,105.75488266417L479.92119979858404,112.59202674552353L487.1927331288656,129.38700386910975L494.4642664591471,126.48541004060098L501.73579978942865,97.83668095071465L509.0073331197103,81.24525452117427L516.2788664499918,90.71582054355486L523.5503997802734,83.59676239011378L530.8219331105549,102.43684692108451L538.0934664408367,91.5826179354741L545.3649997711182,123.31240373378918L552.6365331013997,95.6871641331798L559.9080664316814,106.84136438679081L567.1795997619629,99.44966337029638L574.4511330922445,88.71469505865372L581.722666422526,102.95561872228996L588.9941997528076,112.40670654101751L596.2657330830892,95.94369068894025L603.5372664133707,91.5826179354741L610.8087997436523,94.48999977111816L618.080333073934,92.60253757603891L625.3518664042155,110.9261551110406L632.6233997344971,108.34161930213554L639.8949330647786,100.0040123530851L647.1664663950603,102.38147960732005L654.4379997253418,118.45174278360503L661.7095330556233,102.49386052430356L668.981066385905,102.31756891775416L676.2525997161865,101.06987213411605L683.5241330464681,92.67287745915928L690.7956663767496,98.17919580409603L698.0671997070312,114.98081007358888L705.3387330373129,112.2091691358217L712.6102663675944,111.3561139285082L719.881799697876,102.95561872228996L727.1533330281576,96.41804733359533L734.4248663584391,95.25510846282788L741.6963996887207,123.81876771131536L748.9679330190022,100.55964370871209L756.2394663492839,109.01878147824135L763.5109996795654,100.74087418362546L770.7825330098469,109.77330192935324L778.0540663401287,99.28718326580344L785.3255996704102,120.82205301105296L792.5971330006918,123.79459325037598" fill="none"></path></g><g><path style="fill: none;" stroke="rgb(204, 51, 17)" stroke-width="2px" d="M72.71533330281575,347.4511962073725Z" fill="none"></path></g><g><path style="fill: none;" stroke="rgb(187, 187, 187)" stroke-width="2px" d="M72.71533330281575,348.8861530010517L79.98686663309732,347.92132279521303L87.2583999633789,348.30749884248246L94.52993329366049,347.7312924563919L101.80146662394206,347.05319923319894L109.07299995422363,345.94591361068007L116.3445332845052,347.4740908678008L123.61606661478677,348.1876658933894L130.88759994506836,347.4903154836105L138.15913327534992,342.4814371713477L145.4306666056315,328.33842440685663L152.7021999359131,341.51173531611823L159.97373326619464,346.6272031535881L167.24526659647626,317.53336965402264L174.5167999267578,338.34647036054145L181.7883332570394,331.05245712764776L189.05986658732098,331.00955720724687L196.33139991760254,214.2223443322192L203.60293324788412,285.3336483647063L210.87446657816568,344.12101745493123L218.14599990844727,341.9497744904782L225.41753323872885,245.77908777948747L232.6890665690104,229.54598058209325L239.96059989929202,256.99983278579185L247.23213322957355,223.35702398244362L254.50366655985516,222.39326880632657L261.7751998901367,271.5583430145935L269.04673322041833,237.98710447911606L276.31826655069983,181.11948381127206L283.58979988098145,218.3207039474479L290.861333211263,214.72361347711728L298.1328665415446,215.77572240886118L305.4043998718262,160.88001858512024L312.67593320210773,230.74947016153325L319.9474665323893,215.2537360108785L327.2189998626709,233.41056709476112L334.4905331929525,224.2530906679304L341.76206652323407,205.1441584043334L349.0335998535156,205.4825228753528L356.3051331837972,179.4921006913027L363.5766665140788,181.9907695081256L370.84819984436035,275.73454612698333L378.11973317464196,187.91462151748792L385.39126650492346,183.0514824684404L392.6627998352051,216.21529902261645L399.93433316548663,133.88059425899414L407.20586649576825,212.04397412582122L414.4773998260498,124.38119217711315L421.74893315633136,159.10926964769456L429.0204664866129,169.67184545939102L436.29199981689453,161.7690495493587L443.5635331471761,132.95156712568897L450.8350664774577,149.01820846517367L458.10659980773926,115.79823611123129L465.3781331380208,223.96460010270565L472.64966646830237,119.13829747428372L479.92119979858404,236.15449838160208L487.1927331288656,156.5271946082901L494.4642664591471,119.56130721731637L501.73579978942865,146.89851548081208L509.0073331197103,130.20193447852608L516.2788664499918,182.11609545903147L523.5503997802734,118.7603440742206L530.8219331105549,204.66431701638984L538.0934664408367,182.52023352610496L545.3649997711182,122.18616845317916L552.6365331013997,142.48464015925828L559.9080664316814,118.164924501879L567.1795997619629,153.67817806615417L574.4511330922445,229.50596708366382L581.722666422526,135.04647912141732L588.9941997528076,154.78689336109417L596.2657330830892,169.08020368811378L603.5372664133707,139.17185521306504L610.8087997436523,149.20675193113823L618.080333073934,140.9088292226263L625.3518664042155,149.40281634050615L632.6233997344971,207.71535926865582L639.8949330647786,180.86501944967063L647.1664663950603,147.98868835768386L654.4379997253418,134.9101490252093L661.7095330556233,119.00631704810854L668.981066385905,158.37911428051157L676.2525997161865,151.10587678730155L683.5241330464681,166.43986733137726L690.7956663767496,138.96210060717945L698.0671997070312,104.29942415135451L705.3387330373129,105.13615509902303L712.6102663675944,114.0004533680239L719.881799697876,146.8200134678691L727.1533330281576,149.58347494645108L734.4248663584391,129.59521616171676L741.6963996887207,131.50844711910207L748.9679330190022,119.34711629458457L756.2394663492839,108.4454395139548L763.5109996795654,118.08692504045376L770.7825330098469,138.23080150205953L778.0540663401287,149.9148990077169L785.3255996704102,109.3562881458081L792.5971330006918,160.49508145189682" fill="none"></path></g><g><path style="fill: none;" stroke="rgb(0, 153, 136)" stroke-width="2px" d="M72.71533330281575,348.8861530010517L79.98686663309732,348.1508197421468L87.2583999633789,347.91460204867L94.52993329366049,347.3921235238643L101.80146662394206,348.13400423568544L109.07299995422363,347.2588543617254L116.3445332845052,348.22109477554284L123.61606661478677,344.0403059482465L130.88759994506836,336.59817377863874L138.15913327534992,344.9307525047989L145.4306666056315,347.8313484057114L152.7021999359131,345.04976298609284L159.97373326619464,341.45623586596344L167.24526659647626,331.9606175421152L174.5167999267578,341.4687904476829L181.7883332570394,321.29032566125187L189.05986658732098,306.1637892501659L196.33139991760254,257.9326897082494L203.60293324788412,322.5882970921966L210.87446657816568,333.48915722661013L218.14599990844727,259.6255864838327L225.41753323872885,278.00753032127653L232.6890665690104,246.31113387250625L239.96059989929202,268.39926085069555L247.23213322957355,267.9165774472724L254.50366655985516,265.5033597178274L261.7751998901367,202.71394923478007L269.04673322041833,302.4898257269843L276.31826655069983,267.77953684719444L283.58979988098145,217.6372425480077L290.861333211263,253.6399206377888L298.1328665415446,252.7844739784253L305.4043998718262,213.59217938770306L312.67593320210773,213.196506714299L319.9474665323893,195.97390157252576L327.2189998626709,230.3002757514903L334.4905331929525,154.0614515805603L341.76206652323407,244.593690054686L349.0335998535156,259.98177420436906L356.3051331837972,195.7907995264429L363.5766665140788,198.1474888748239L370.84819984436035,256.3802387525109L378.11973317464196,150.7344218982436L385.39126650492346,222.8054996857719L392.6627998352051,143.36739789420636L399.93433316548663,178.80164689402088L407.20586649576825,188.61817631295625L414.4773998260498,145.1694090019078L421.74893315633136,224.69233802379472L429.0204664866129,146.00797686202043L436.29199981689453,122.61453296928008L443.5635331471761,202.1798756063277L450.8350664774577,258.5342265456173L458.10659980773926,170.0811823352687L465.3781331380208,161.75457953152042L472.64966646830237,199.55435585468305L479.92119979858404,199.48320149151664L487.1927331288656,137.7060337413666L494.4642664591471,163.44961648339472L501.73579978942865,144.79750354942016L509.0073331197103,112.35901613492064L516.2788664499918,142.7653585053208L523.5503997802734,115.85876757507452L530.8219331105549,158.01117725207777L538.0934664408367,140.20575964931302L545.3649997711182,116.47929739394021L552.6365331013997,132.26643344275007L559.9080664316814,122.49452713271717L567.1795997619629,120.42649297850636L574.4511330922445,152.41921719677367L581.722666422526,134.9793451703928L588.9941997528076,126.88453992185981L596.2657330830892,114.80535027644822L603.5372664133707,140.6579693684624L610.8087997436523,185.634094718088L618.080333073934,199.6161870207273L625.3518664042155,197.39466670125472L632.6233997344971,133.03994687535985L639.8949330647786,115.36779207160868L647.1664663950603,147.503899436695L654.4379997253418,128.49660388521954L661.7095330556233,160.4499731208393L668.981066385905,162.3978974623111L676.2525997161865,127.93372885599206L683.5241330464681,144.80880229388788L690.7956663767496,149.90379088623868L698.0671997070312,115.81395384318256L705.3387330373129,139.4973006442061L712.6102663675944,175.83927899059137L719.881799697876,131.35378255717802L727.1533330281576,138.73626435272632L734.4248663584391,142.76495992997914L741.6963996887207,120.15083480634661L748.9679330190022,143.68183918004524L756.2394663492839,137.49731889724185L763.5109996795654,142.21437141889217L770.7825330098469,143.62806616764746L778.0540663401287,161.7101123868821L785.3255996704102,176.89753118140555L792.5971330006918,136.11254685480046" fill="none"></path></g></g></g></g></g></g><g transform="translate(51, 377)" clip-path="url(#clip_1)"><clipPath id="clip_1"><rect width="872" height="22"></rect></clipPath><g><g><line x1="0" y1="0" x2="0" y2="5" style="visibility: inherit;" fill="rgb(0, 0, 0)" stroke="rgb(204, 204, 204)" stroke-width="1px"></line><line x1="72.71533330281575" y1="0" x2="72.71533330281575" y2="5" style="visibility: inherit;" fill="rgb(0, 0, 0)" stroke="rgb(204, 204, 204)" stroke-width="1px"></line><line x1="145.4306666056315" y1="0" x2="145.4306666056315" y2="5" style="visibility: inherit;" fill="rgb(0, 0, 0)" stroke="rgb(204, 204, 204)" stroke-width="1px"></line><line x1="218.14599990844727" y1="0" x2="218.14599990844727" y2="5" style="visibility: inherit;" fill="rgb(0, 0, 0)" stroke="rgb(204, 204, 204)" stroke-width="1px"></line><line x1="290.861333211263" y1="0" x2="290.861333211263" y2="5" style="visibility: inherit;" fill="rgb(0, 0, 0)" stroke="rgb(204, 204, 204)" stroke-width="1px"></line><line x1="363.5766665140788" y1="0" x2="363.5766665140788" y2="5" style="visibility: inherit;" fill="rgb(0, 0, 0)" stroke="rgb(204, 204, 204)" stroke-width="1px"></line><line x1="436.29199981689453" y1="0" x2="436.29199981689453" y2="5" style="visibility: inherit;" fill="rgb(0, 0, 0)" stroke="rgb(204, 204, 204)" stroke-width="1px"></line><line x1="509.0073331197103" y1="0" x2="509.0073331197103" y2="5" style="visibility: inherit;" fill="rgb(0, 0, 0)" stroke="rgb(204, 204, 204)" stroke-width="1px"></line><line x1="581.722666422526" y1="0" x2="581.722666422526" y2="5" style="visibility: inherit;" fill="rgb(0, 0, 0)" stroke="rgb(204, 204, 204)" stroke-width="1px"></line><line x1="654.4379997253418" y1="0" x2="654.4379997253418" y2="5" style="visibility: inherit;" fill="rgb(0, 0, 0)" stroke="rgb(204, 204, 204)" stroke-width="1px"></line><line x1="727.1533330281576" y1="0" x2="727.1533330281576" y2="5" style="visibility: inherit;" fill="rgb(0, 0, 0)" stroke="rgb(204, 204, 204)" stroke-width="1px"></line><line x1="799.8686663309733" y1="0" x2="799.8686663309733" y2="5" style="visibility: inherit;" fill="rgb(0, 0, 0)" stroke="rgb(204, 204, 204)" stroke-width="1px"></line><line x1="872.5839996337891" y1="0" x2="872.5839996337891" y2="5" style="visibility: inherit;" fill="rgb(0, 0, 0)" stroke="rgb(204, 204, 204)" stroke-width="1px"></line></g><g transform="translate(0, 8)"><text style="text-anchor: middle; visibility: hidden; font-family: &quot;Helvetica Neue&quot;, sans-serif; font-size: 12px; font-weight: 200;" x="0" y="0" dx="0em" dy="0.95em" fill="rgb(50, 49, 63)" stroke="none" stroke-width="1px">-10</text><text style="text-anchor: middle; visibility: inherit; font-family: &quot;Helvetica Neue&quot;, sans-serif; font-size: 12px; font-weight: 200;" x="72.71533330281575" y="0" dx="0em" dy="0.95em" fill="rgb(50, 49, 63)" stroke="none" stroke-width="1px">0</text><text style="text-anchor: middle; visibility: inherit; font-family: &quot;Helvetica Neue&quot;, sans-serif; font-size: 12px; font-weight: 200;" x="145.4306666056315" y="0" dx="0em" dy="0.95em" fill="rgb(50, 49, 63)" stroke="none" stroke-width="1px">10</text><text style="text-anchor: middle; visibility: inherit; font-family: &quot;Helvetica Neue&quot;, sans-serif; font-size: 12px; font-weight: 200;" x="218.14599990844727" y="0" dx="0em" dy="0.95em" fill="rgb(50, 49, 63)" stroke="none" stroke-width="1px">20</text><text style="text-anchor: middle; visibility: inherit; font-family: &quot;Helvetica Neue&quot;, sans-serif; font-size: 12px; font-weight: 200;" x="290.861333211263" y="0" dx="0em" dy="0.95em" fill="rgb(50, 49, 63)" stroke="none" stroke-width="1px">30</text><text style="text-anchor: middle; visibility: inherit; font-family: &quot;Helvetica Neue&quot;, sans-serif; font-size: 12px; font-weight: 200;" x="363.5766665140788" y="0" dx="0em" dy="0.95em" fill="rgb(50, 49, 63)" stroke="none" stroke-width="1px">40</text><text style="text-anchor: middle; visibility: inherit; font-family: &quot;Helvetica Neue&quot;, sans-serif; font-size: 12px; font-weight: 200;" x="436.29199981689453" y="0" dx="0em" dy="0.95em" fill="rgb(50, 49, 63)" stroke="none" stroke-width="1px">50</text><text style="text-anchor: middle; visibility: inherit; font-family: &quot;Helvetica Neue&quot;, sans-serif; font-size: 12px; font-weight: 200;" x="509.0073331197103" y="0" dx="0em" dy="0.95em" fill="rgb(50, 49, 63)" stroke="none" stroke-width="1px">60</text><text style="text-anchor: middle; visibility: inherit; font-family: &quot;Helvetica Neue&quot;, sans-serif; font-size: 12px; font-weight: 200;" x="581.722666422526" y="0" dx="0em" dy="0.95em" fill="rgb(50, 49, 63)" stroke="none" stroke-width="1px">70</text><text style="text-anchor: middle; visibility: inherit; font-family: &quot;Helvetica Neue&quot;, sans-serif; font-size: 12px; font-weight: 200;" x="654.4379997253418" y="0" dx="0em" dy="0.95em" fill="rgb(50, 49, 63)" stroke="none" stroke-width="1px">80</text><text style="text-anchor: middle; visibility: inherit; font-family: &quot;Helvetica Neue&quot;, sans-serif; font-size: 12px; font-weight: 200;" x="727.1533330281576" y="0" dx="0em" dy="0.95em" fill="rgb(50, 49, 63)" stroke="none" stroke-width="1px">90</text><text style="text-anchor: middle; visibility: inherit; font-family: &quot;Helvetica Neue&quot;, sans-serif; font-size: 12px; font-weight: 200;" x="799.8686663309733" y="0" dx="0em" dy="0.95em" fill="rgb(50, 49, 63)" stroke="none" stroke-width="1px">100</text><text style="text-anchor: middle; visibility: hidden; font-family: &quot;Helvetica Neue&quot;, sans-serif; font-size: 12px; font-weight: 200;" x="872.5839996337891" y="0" dx="0em" dy="0.95em" fill="rgb(50, 49, 63)" stroke="none" stroke-width="1px">110</text></g><line x1="0" y1="0" x2="872.5839996337891" y2="0" fill="rgb(0, 0, 0)" stroke="rgb(204, 204, 204)" stroke-width="1px"></line></g></g></g></g></svg>